<svg width="105" height="92" viewBox="0 0 105 92" fill="none" xmlns="http://www.w3.org/2000/svg">
<path d="M24.5982 37.5663C25.1154 37.4274 25.9098 37.2857 26.3327 37.2403C27.27 37.1467 27.8787 36.9143 27.8787 36.6818C27.8787 36.5911 27.9244 36.5429 27.973 36.5429C28.0645 36.5429 28.113 36.6364 28.113 36.73C28.113 36.9143 28.8617 36.9143 30.502 36.6364C31.3907 36.4975 34.717 36.4493 34.9027 36.5911C34.997 36.6364 34.997 36.7754 34.857 36.9625C34.7627 37.1467 34.5284 38.0313 34.3426 38.9583C34.1083 39.8882 33.8254 41.3284 33.6397 42.1193C31.5307 51.18 30.9707 55.594 31.6708 57.8705C31.8594 58.3837 31.9994 58.9393 31.9537 59.0329C31.9537 59.4978 31.9994 59.5914 32.3737 60.0563C33.171 60.938 34.1998 61.6354 34.8113 61.6808C35.1371 61.6808 35.4657 61.6354 35.56 61.5419C35.7457 61.4029 35.7457 60.8926 35.56 60.5666C35.5114 60.4277 35.3714 60.147 35.3257 59.9628C35.2314 59.7757 35.0913 59.5914 34.997 59.5914C34.717 59.5914 34.5284 58.0123 34.5284 56.059C34.5284 54.0603 34.717 52.5266 35.5114 48.997C35.7457 47.7893 35.9801 46.6723 35.9343 46.5788C35.9343 46.4399 35.9801 46.2556 36.0286 46.162C36.1201 46.0685 36.1687 45.836 36.2144 45.6971C36.263 45.4193 37.0574 41.9322 37.7604 39.1001C38.0404 38.0766 38.4176 36.4975 38.6519 35.5223C39.2606 32.8716 41.741 23.4395 42.8669 19.4904C43.8014 16.4229 43.8957 15.9126 44.7872 12.6609C45.2073 10.9401 45.676 9.1285 45.816 8.61821C45.956 8.10507 46.0989 7.54941 46.0989 7.31694C46.0989 7.12983 46.1446 6.48062 46.2846 5.87677C46.5675 4.43375 46.4732 2.99358 46.0989 2.29617C45.7703 1.74051 45.2073 1.18202 44.973 1.18202C44.9273 1.18202 44.6444 0.949549 44.3643 0.623524C43.5699 -0.258159 42.444 -0.212798 40.8523 0.810634C39.635 1.64696 36.0744 5.22472 33.9197 7.82724C33.6397 8.19863 33.171 8.75712 32.891 9.03495C32.188 9.82591 29.6104 13.0776 27.9244 15.4477C27.0814 16.5619 26.2384 17.6788 26.0527 17.9113C25.8184 18.1438 25.6298 18.3763 25.6298 18.4216C25.6298 18.5605 23.6151 21.5344 23.1008 22.2318C22.9122 22.4643 22.6321 22.6968 22.5378 22.6968C22.2578 22.6968 21.7434 23.1135 21.7434 23.346C21.7434 23.5331 19.9631 26.1356 19.6345 26.4135C19.4945 26.5524 19.3544 26.7395 19.3544 26.833C19.3544 26.9238 19.2601 27.0655 19.1658 27.0655C19.0258 27.1109 18.9315 27.2498 18.9315 27.3433C18.9315 27.4369 18.7458 27.9018 18.4629 28.3639C18.1828 28.7835 17.8542 29.342 17.7599 29.5263C17.6199 29.7134 17.4798 29.9912 17.3855 30.0848C16.8712 30.6433 16.6826 30.9211 16.6826 31.1054C16.6826 31.2471 16.4968 31.6185 16.2168 31.9445C15.9824 32.2677 15.7481 32.5937 15.7481 32.6391C15.7481 32.7327 15.6995 32.9198 15.5595 33.1522C15.4652 33.3365 15.4195 33.5236 15.5138 33.569C15.6995 33.7079 15.5138 33.895 15.2795 33.8014C15.1852 33.7561 15.0909 33.8014 15.0909 33.9404C15.0909 34.0793 15.0451 34.1728 14.9508 34.1728C14.9051 34.1728 14.8108 34.3117 14.7165 34.4989C14.2479 35.6612 13.0762 37.2403 12.4676 37.4728C12.1875 37.6117 11.0645 37.8895 9.98716 38.1702C7.59819 38.774 3.70897 40.0271 2.30588 40.6791C1.32 41.0959 1.27428 41.1441 1.32 41.5155C1.5086 42.3518 1.69721 42.8621 1.88295 42.8621C1.97725 42.8621 2.07155 43.001 2.07155 43.1428C2.07155 43.4206 2.21158 43.4659 2.4459 43.2335C2.58593 43.0946 2.58593 43.0946 2.58593 43.2335C2.58593 43.4659 2.96027 43.4206 3.05457 43.1881C3.1946 42.7685 8.81553 40.7727 10.8759 40.3531L11.3445 40.2596L11.0645 40.8181C9.46993 43.5141 6.84664 48.7645 5.30352 52.2034C4.83487 53.2722 4.41194 54.2474 4.31764 54.3863C3.66325 55.8747 3.006 57.4056 2.91455 57.7316C2.86597 57.9187 2.77167 58.1512 2.72595 58.2419C2.4459 58.6161 1.13425 62.5653 0.525581 64.7964C0.291257 65.7717 0.0569326 66.6534 0.00835249 66.7469C-0.0373694 66.8858 0.102654 67.1183 0.477002 67.4443C0.805628 67.6768 1.13425 67.9093 1.22856 67.9093C1.27428 67.9093 1.55432 68.0935 1.78865 68.2324C2.68023 68.8845 3.24032 68.6067 3.47464 67.3054C3.52322 67.0247 3.66325 66.6534 3.70897 66.4691C3.84899 66.282 4.17762 65.2585 4.46052 64.1897C4.78629 63.0756 5.16064 61.729 5.39496 61.1251C5.62929 60.5213 5.76931 59.8692 5.76931 59.6849C5.76931 59.4978 5.86361 59.3589 5.95792 59.3589C6.05222 59.4043 6.14652 59.1718 6.23796 58.894C6.28654 58.6161 6.38084 58.2419 6.42657 58.103C6.89522 57.176 7.59819 55.4551 8.20686 53.9214C9.14416 51.5995 12.4218 44.9543 14.6708 40.957C14.9051 40.492 15.2309 39.8882 15.3738 39.6104C15.6538 39.1001 15.6995 39.0519 16.5911 38.8676C17.1512 38.7287 17.7142 38.6351 17.9028 38.6351C18.0885 38.6351 19.0715 38.448 20.1489 38.2155C21.2262 37.9831 22.4435 37.7988 22.8664 37.7988C23.3351 37.7506 24.0838 37.6599 24.5982 37.5663ZM33.4996 35.1963C33.311 35.1963 33.171 35.1481 33.2653 35.1481C33.3568 35.1027 33.5454 35.1027 33.6854 35.1027C33.7797 35.1481 33.734 35.1963 33.4996 35.1963ZM35.0428 38.9583C35.0913 38.8194 35.1371 38.774 35.1371 38.9129C35.1371 39.0065 35.0913 39.239 35.0428 39.3779C34.9513 39.5168 34.9027 39.565 34.9027 39.4232C34.9027 39.3325 34.997 39.1001 35.0428 38.9583ZM32.6567 55.1773C32.6081 56.3368 32.5138 56.6628 32.468 56.385C32.4223 56.1979 32.3737 55.6876 32.4223 55.268C32.468 54.8513 32.468 54.4799 32.4223 54.3863C32.328 54.0603 32.1394 54.2021 32.0937 54.6188C32.0451 54.8513 32.0451 54.3863 32.0451 53.55C32.0937 52.1552 32.3737 50.4825 32.5623 50.2983C32.6081 50.2501 32.6567 50.3918 32.6567 50.6697C32.6567 51.0864 32.6567 51.0864 32.8424 50.8539C33.031 50.5761 32.9824 50.1112 32.7481 50.0176C32.5623 49.9269 32.6081 49.6009 32.9824 48.2061C33.3568 46.7659 33.9197 44.118 34.1083 42.9103C34.3884 41.3766 34.8113 39.8428 34.997 39.8428C35.1856 39.8428 35.3714 38.9583 35.3714 38.0766C35.3714 37.6117 35.42 37.5663 35.7 37.5181C36.1687 37.4728 36.2144 37.5181 36.0744 38.0313C35.2314 41.1894 33.8254 47.5086 33.171 51.3671C32.9367 52.6201 32.7481 54.2928 32.6567 55.1773ZM36.4973 32.9651C36.403 32.7327 36.403 32.6391 36.543 32.5484C36.683 32.5002 36.7316 32.3159 36.683 32.2224C36.6373 32.0834 36.6373 31.9899 36.7316 31.9445C36.8231 31.8963 36.9174 31.5703 36.9631 31.2471C37.0574 30.5015 37.2917 29.8069 37.526 29.4809C37.6203 29.342 37.7146 29.1095 37.7146 28.9706C37.7146 28.8289 37.9947 27.7601 38.369 26.6006C38.7434 25.4382 39.0263 24.3694 39.0263 24.2305C39.0263 24.137 39.1177 23.9045 39.2606 23.7174C39.4006 23.5331 39.635 22.9746 39.8207 22.4643C40.0093 21.9058 40.1493 21.4891 40.195 21.5344C40.2436 21.5798 39.3521 24.9733 38.9777 26.2292C38.792 26.7848 38.4633 28.0407 38.229 29.016C37.9947 29.9912 37.6661 31.525 37.4317 32.3613C37.1974 33.243 36.9631 34.4989 36.8231 35.1027C36.683 35.7548 36.543 36.2651 36.4973 36.2651C36.403 36.2651 35.84 35.0092 35.84 34.8249C35.84 34.7767 35.9343 34.5924 36.0744 34.4989C36.1687 34.3599 36.3087 34.1275 36.3087 33.9404C36.3544 33.7079 36.4487 33.5236 36.4973 33.4301C36.543 33.3847 36.543 33.1976 36.4973 32.9651ZM40.478 22.9293C40.478 23.0682 40.3379 23.672 40.1493 24.3241C39.8207 25.5318 39.5407 26.0421 39.5864 25.4382C39.5864 25.2511 39.6807 24.8797 39.8207 24.6019C39.9607 24.3241 40.1036 23.9045 40.1036 23.7174C40.1036 23.346 40.478 22.6032 40.478 22.9293ZM37.7604 33.4754L37.5746 33.8014V33.4754C37.5746 33.243 37.6203 33.104 37.7146 33.1522C37.7604 33.1976 37.8547 33.1522 37.8547 33.104C37.8547 33.0133 37.8547 32.9651 37.9004 33.0133C37.949 33.0587 37.9004 33.243 37.7604 33.4754ZM35.3714 46.627C35.0428 48.2061 34.577 50.3918 34.3426 51.4124C33.9654 53.2722 33.8254 53.7371 33.8254 53.1786C33.8254 52.9915 33.7797 52.9008 33.734 52.9462C33.6397 52.9915 33.5911 53.2722 33.5911 53.5954C33.5911 53.876 33.5454 54.6642 33.4511 55.3616C33.311 56.2915 33.311 56.7564 33.4053 57.4992C33.4996 58.0123 33.5454 58.4744 33.5454 58.5226C33.4053 58.6161 33.171 57.4538 33.0767 56.4304C32.9824 54.8966 33.5454 50.5307 34.1083 48.3932C34.1998 48.1607 34.3884 47.0919 34.577 46.0685C35.0428 43.653 35.0428 43.653 35.1856 43.653C35.3257 43.653 35.2314 43.9791 34.9027 45.4193C34.7627 45.9296 34.717 46.3491 34.7627 46.3945C34.9513 46.4398 34.9513 46.6723 34.7627 46.6723C34.6684 46.627 34.577 46.7205 34.5284 46.8594C34.5284 46.9983 34.5284 47.0919 34.6227 46.9983C34.7627 46.953 34.7627 47.0919 34.6684 47.4633C34.6684 47.7411 34.6227 48.0218 34.6684 48.0218C34.857 48.0218 35.0428 47.4179 35.1371 46.6723C35.1856 46.2074 35.2314 45.7906 35.3257 45.7424C35.3257 45.7424 35.42 45.5582 35.42 45.4193C35.56 44.0244 35.7 43.4659 35.8858 43.653C35.9343 43.6984 35.7 45.0479 35.3714 46.627ZM39.6807 28.4121C39.4006 29.4327 39.072 30.7822 38.932 31.386C38.1347 34.5924 37.5746 37.0078 37.246 38.3545C36.3544 42.2129 36.0744 43.3752 35.9801 43.3752C35.7943 43.3752 35.7943 43.1881 36.0286 42.2129C36.1687 41.7479 36.2144 41.3284 36.1687 41.3284C36.0744 41.2376 35.6543 42.074 35.5114 42.7232C35.42 43.0492 35.2771 43.327 35.1856 43.3752C34.997 43.4206 35.0913 43.0492 35.4657 42.2582C35.6057 41.9804 35.7457 41.5155 35.7457 41.2376C35.7457 40.957 35.7943 40.8181 35.8858 40.8181C35.9801 40.9116 35.9801 40.8181 35.9343 40.7245C35.8858 40.5856 35.9343 40.492 36.0744 40.4467C36.2144 40.3531 36.3087 40.4467 36.3544 40.6338C36.403 40.9116 36.4487 40.9116 36.4973 40.5402C36.683 39.8882 36.6373 39.565 36.4487 39.565C36.3087 39.565 36.3087 39.3325 36.403 38.4962C36.4487 37.8895 36.543 37.3792 36.6373 37.3339C36.683 37.2857 36.7316 37.0078 36.7316 36.6818C36.7316 36.3586 36.8716 35.9844 37.0117 35.7066C37.1974 35.4287 37.2917 35.1481 37.246 35.0574C37.106 34.7313 37.526 33.895 37.8547 33.8496C38.089 33.8496 38.1833 33.7079 38.229 33.4754C38.229 33.2911 38.3233 32.9198 38.4633 32.5937C38.6519 31.9445 38.6977 31.7121 38.5091 31.851C38.4633 31.8963 38.3233 32.0834 38.3233 32.3159C38.1347 33.0587 37.9004 32.9198 38.0404 32.1742C38.089 31.7574 38.1347 31.1989 38.1833 30.9211C38.229 30.6433 38.3233 30.2237 38.4176 29.9912C38.5091 29.7587 38.6519 29.342 38.6977 29.016C38.792 28.1797 39.2606 26.6459 39.4464 26.4588C39.5864 26.2745 39.635 26.181 39.0263 28.5964C38.5576 30.5951 38.4633 31.1989 38.6519 31.2925C38.6977 31.3378 38.792 31.1989 38.8377 30.9665C39.0263 29.9912 39.4464 28.1343 39.635 27.4823C39.775 27.1109 39.8693 26.6459 39.915 26.4135C39.9607 26.2292 40.055 25.9967 40.1036 25.9032C40.195 25.855 40.2436 25.6707 40.2436 25.5318C40.2436 25.2511 40.618 24.463 40.618 24.6955C40.618 24.8344 40.2893 26.181 39.6807 28.4121ZM40.7123 24.4148C40.6637 24.5083 40.6637 24.5083 40.618 24.3241C40.618 24.1823 40.6637 24.137 40.7123 24.137C40.758 24.2305 40.758 24.3241 40.7123 24.4148ZM40.7123 22.1865C40.6637 22.2772 40.6637 22.2318 40.618 22.0929C40.618 21.954 40.6637 21.8605 40.7123 21.9058C40.758 21.954 40.758 22.0929 40.7123 22.1865ZM40.758 21.1177C40.8523 20.7917 40.8523 20.7917 40.898 21.2084C40.898 21.4409 40.8037 21.628 40.758 21.6733C40.618 21.7669 40.618 21.5798 40.758 21.1177ZM41.9296 20.0007C41.881 20.1878 41.741 20.5592 41.6953 20.837C41.6496 21.0695 41.4153 21.8605 41.2267 22.6032C41.038 23.3006 40.8523 23.9498 40.8037 23.998C40.6637 24.137 40.758 23.5785 41.0866 22.3708C41.2724 21.7215 41.5067 20.7917 41.6496 20.3721C41.741 19.9553 41.881 19.5358 41.9753 19.445C42.1154 19.2579 42.1154 19.5358 41.9296 20.0007ZM41.1809 19.9071C41.2724 19.7682 41.2724 19.8164 41.2267 20.0943C41.1809 20.3267 41.0866 20.5592 40.9923 20.6046C40.8523 20.7917 40.9923 20.2332 41.1809 19.9071ZM41.3209 19.3033C41.3209 19.1644 41.3667 18.9801 41.4153 18.8384C41.5553 18.6994 41.5553 18.6994 41.5553 18.9319C41.5553 19.0708 41.5067 19.2579 41.4153 19.3968C41.3209 19.5358 41.3209 19.5358 41.3209 19.3033ZM41.8353 17.5399C41.881 17.5399 41.9753 17.5853 41.9296 17.6788C41.9296 17.7696 41.881 18.002 41.8353 18.1438C41.741 18.3281 41.6953 18.3281 41.6496 18.1891C41.5553 17.9567 41.6953 17.5399 41.8353 17.5399ZM42.1639 19.119C42.1154 19.2579 42.1154 19.2126 42.1154 19.0708C42.1154 18.9319 42.1154 18.8384 42.1639 18.8866C42.2097 18.9319 42.2097 19.0255 42.1639 19.119ZM42.444 18.1891C42.304 18.5605 42.2097 18.6541 42.2097 18.5152C42.2097 18.1891 42.444 17.4464 42.5383 17.5399C42.584 17.5853 42.5383 17.8631 42.444 18.1891ZM42.9584 16.4711C42.7726 17.0268 42.6326 17.3528 42.6326 17.1657C42.6326 16.8879 43.147 15.3541 43.2413 15.4477C43.2413 15.4931 43.147 15.958 42.9584 16.4711ZM42.6783 15.3088C42.3983 16.3294 42.0696 17.2139 41.9753 17.2593C41.741 17.3075 41.7896 17.1203 42.1154 16.1451C42.304 15.632 42.5383 14.9374 42.6326 14.6114C42.8183 13.9593 43.1927 13.123 43.2413 13.2648C43.287 13.3555 43.0069 14.24 42.6783 15.3088ZM12.4676 39.9364C12.5619 39.9364 12.1418 40.7245 10.5015 43.792C10.1272 44.5347 9.60995 45.4646 9.42421 45.8842C9.2356 46.3009 8.90984 46.9983 8.67551 47.4179C8.30116 48.2061 8.06684 48.5321 8.06684 48.345C8.06684 47.9736 12.2332 39.9364 12.4676 39.9364ZM7.92396 48.671C8.01826 48.671 8.06684 48.671 8.06684 48.7164C8.06684 48.7645 8.01826 48.8099 7.92396 48.8581C7.83251 48.9035 7.78393 48.8581 7.78393 48.8099C7.78393 48.7164 7.83251 48.671 7.92396 48.671ZM7.12954 50.2983C7.22384 50.2501 7.26956 50.2983 7.26956 50.3436C7.26956 50.3918 7.17526 50.5307 7.12954 50.6215C6.98952 50.8086 6.98952 50.8086 6.98952 50.6215C6.98952 50.4826 7.03524 50.3436 7.12954 50.2983ZM6.52087 52.8526C6.38084 52.9915 6.47229 52.7591 7.03524 51.5995C7.68963 50.2501 7.73821 50.1594 7.45817 50.0176C7.31528 49.9269 7.31528 49.8333 7.54961 49.462C7.78393 48.9488 7.87824 49.0906 7.64391 49.6462C7.54961 49.8787 7.54961 49.9723 7.64391 49.9723C7.73821 49.9723 7.92396 49.6462 8.15828 49.2295C8.48691 48.4385 10.4072 44.5829 11.9989 41.5608C12.7019 40.1688 12.9848 39.7946 13.2648 39.7039C13.4506 39.6104 13.6392 39.6104 13.6392 39.6104C13.6392 39.6557 13.4049 40.0271 13.1705 40.4013C12.9362 40.7727 12.7019 41.1894 12.7019 41.3766C12.7019 41.5608 12.6076 41.6544 12.5162 41.6544C12.3761 41.6544 12.2818 41.7933 12.2818 41.9804C12.2818 42.1647 12.2332 42.3518 12.1875 42.3518C12.0932 42.3518 11.9989 42.4453 11.9532 42.5843C11.9075 42.6778 11.8132 42.8621 11.7189 43.001C11.4845 43.2817 10.3129 45.4646 8.30116 49.4138C7.36386 51.2735 6.56659 52.8072 6.52087 52.8526ZM10.4558 46.0685C10.4558 46.162 10.3615 46.3009 10.3129 46.3491C10.1272 46.4398 10.1272 46.3009 10.3129 46.0231C10.4072 45.836 10.4558 45.8842 10.4558 46.0685ZM11.6732 45.2321C11.5789 45.2321 10.9702 46.2074 10.3615 47.2762C10.0329 47.88 9.79856 48.2061 9.93858 47.9282C10.1272 47.3244 11.4846 44.9543 11.6246 44.9543C11.7189 44.9543 11.7646 45.0479 11.7646 45.0932C11.7646 45.1868 11.7189 45.2321 11.6732 45.2321ZM12.1418 44.3505C11.9075 44.8154 11.6246 44.9997 11.6246 44.6736C11.6246 44.3958 12.0475 43.792 12.2332 43.792C12.5162 43.792 12.4676 43.792 12.1418 44.3505ZM14.1078 40.4467C13.7792 41.0505 13.4049 41.7479 13.3106 42.074C13.1705 42.3518 12.9848 42.7685 12.8419 43.001C12.5619 43.3752 12.2818 43.5141 12.2818 43.327C12.2818 43.2335 12.6562 42.5843 13.0762 41.7933C13.4992 41.0505 13.9678 40.2142 14.1078 39.9364C14.3422 39.5168 14.5765 39.2843 14.6708 39.3325C14.6708 39.3779 14.4365 39.8882 14.1078 40.4467ZM14.2479 36.6364C14.5765 36.0326 16.0282 33.4754 16.3082 33.104C16.4025 32.9198 16.8254 32.2677 17.1512 31.6639C17.8085 30.6433 18.1371 30.269 17.9485 30.8757C17.9028 31.06 17.8085 31.1989 17.7599 31.2471C17.5741 31.386 16.1682 33.6172 15.6052 34.686C15.2795 35.2898 14.8565 36.0326 14.6708 36.3586C14.2964 37.0532 13.9192 37.2857 14.2479 36.6364ZM15.6052 36.1715C15.4195 36.4493 15.1852 36.73 15.0909 36.8236C14.9051 36.9143 14.7165 36.9625 14.7165 36.8689C14.7165 36.8236 14.9508 36.3586 15.2795 35.8001C15.6052 35.2416 15.8881 34.686 15.8881 34.5924C15.8881 34.4989 15.9339 34.4053 16.0282 34.4053C16.0739 34.3599 16.6368 33.4754 17.2941 32.3613C17.9485 31.2925 18.7915 29.8523 19.2144 29.2484C19.5888 28.5964 19.8688 28.0407 19.8231 27.9925C19.7288 27.8536 19.4459 28.225 18.8372 29.3874C18.2771 30.5015 17.9028 30.6886 18.2771 29.6652C18.5114 29.016 19.4002 27.5758 19.5888 27.5758C19.6802 27.5758 21.4605 24.8797 21.4605 24.7408C21.4605 24.5083 22.3035 23.5785 22.5378 23.5785C22.6778 23.5785 22.8664 23.4849 22.9607 23.346C23.2865 22.9746 24.5982 21.0695 25.2554 20.0007C25.8641 18.9319 26.3327 18.4216 26.6128 18.3763C26.6614 18.3763 26.8014 18.3281 26.8957 18.3281C26.9871 18.3281 27.0814 18.2345 27.0814 18.1438C27.0814 18.002 26.9871 17.9567 26.8471 18.002C26.7528 18.0502 26.9414 17.6788 27.3158 17.1657C27.6901 16.7008 28.0645 16.1451 28.2045 15.958C28.2988 15.8191 28.4874 15.7255 28.5331 15.7737C28.6274 15.8191 28.6731 15.8191 28.6274 15.6802C28.5331 15.5866 29.1904 14.6567 30.2677 13.2648C31.2507 11.9635 32.328 10.5687 32.6081 10.1491C32.9367 9.73236 33.2653 9.36097 33.311 9.36097C33.3568 9.36097 33.874 8.80248 34.4341 8.10507C35.7 6.52598 39.5407 2.57683 39.7293 2.67039C39.9607 2.76111 40.3379 2.52864 40.2893 2.34437C40.1493 2.01834 42.3983 0.532805 43.0069 0.532805C43.3813 0.532805 43.3356 0.765274 43.0069 0.855994C42.8669 0.904189 42.444 1.13666 42.0696 1.32093C41.3209 1.74051 41.2266 1.78587 41.3667 1.5534C41.4153 1.45985 41.4153 1.41449 41.3667 1.45985C41.2266 1.6016 41.1809 2.1119 41.2724 2.1119C41.3209 2.1119 41.6953 1.92479 42.1154 1.69232C42.9126 1.22738 43.427 1.18202 42.724 1.6016C41.2267 2.52864 38.4633 5.0858 36.3544 7.54941C34.1998 9.96483 32.3737 12.1478 32.1394 12.5192C31.9994 12.7063 31.8137 12.9387 31.7194 13.0776C31.5793 13.2166 31.2964 13.6361 31.1107 14.0075C30.9221 14.3789 30.4534 15.0281 30.0791 15.4023C29.7505 15.8191 29.4704 16.2387 29.4704 16.284C29.4704 16.3776 29.3761 16.5165 29.2818 16.5619C29.1904 16.6101 28.956 16.9332 28.816 17.3075C28.6274 17.6306 28.2988 18.0502 28.113 18.1891C27.8787 18.3281 27.7387 18.5152 27.7387 18.6059C27.7387 18.6541 27.4558 19.119 27.0814 19.5358C26.5185 20.2814 25.2068 22.1383 23.4294 24.8797C23.0065 25.5318 22.7721 25.7642 22.4921 25.8096C22.3035 25.855 22.0692 25.9967 22.0234 26.0874C21.9777 26.181 21.4148 27.1109 20.7575 28.0861C18.3228 31.7574 17.6199 32.8716 17.0112 33.9404C16.8254 34.3117 16.4968 34.8249 16.3082 35.1481C16.1225 35.4287 15.7938 35.8937 15.6052 36.1715ZM37.8547 6.80381C37.8547 6.89736 37.6203 7.08447 37.386 7.31694C37.0574 7.64013 37.0117 7.64013 37.246 7.40766C37.6661 6.852 37.8547 6.66489 37.8547 6.80381ZM36.2144 8.61821C36.1201 8.75712 35.7 9.26742 35.3257 9.73236C34.9027 10.1973 34.5284 10.6622 34.3884 10.7076C34.154 10.8465 35.84 8.80248 36.2144 8.57001C36.403 8.38573 36.403 8.38574 36.2144 8.61821ZM34.014 11.2661C33.874 11.4504 33.734 11.5921 33.6854 11.5921C33.6397 11.5921 33.6854 11.4504 33.7797 11.2661C33.9197 11.079 34.1083 10.9401 34.154 10.9401C34.1998 10.9401 34.154 11.079 34.014 11.2661ZM29.6104 17.075C29.5161 17.1203 29.4704 17.2593 29.5161 17.3528C29.6104 17.5853 29.4247 17.7696 29.2361 17.5853C29.0961 17.4464 29.2818 17.1657 29.9848 16.2387C30.502 15.5413 31.2021 14.7503 31.5307 14.4243C31.8594 14.1011 32.0937 13.7269 32.0937 13.5879C32.0937 13.449 32.188 13.3555 32.2794 13.3555C32.3737 13.3555 32.4223 13.2648 32.4223 13.123C32.3737 12.8905 32.4223 12.8905 32.5138 13.0323C32.6081 13.1712 32.7024 13.0776 32.891 12.6127C33.0767 12.2413 33.2167 11.9635 33.2653 12.0089C33.4053 12.196 32.9367 13.0323 32.1394 13.9593C31.7194 14.5178 31.2964 15.1217 31.2021 15.3088C30.9707 15.6802 29.7505 17.2593 29.659 17.2593C29.6104 17.2593 29.6104 17.2139 29.659 17.1203C29.7505 17.0268 29.7047 17.0268 29.6104 17.075ZM29.0475 17.7696C29.0475 17.8631 29.0018 17.9567 28.9075 18.002C28.8617 18.0502 28.7674 18.002 28.7674 17.9567C28.7674 17.8631 28.8617 17.7696 28.9075 17.7242C29.0018 17.6788 29.0475 17.7242 29.0475 17.7696ZM16.4968 36.2651C16.4025 36.4975 16.1682 36.6364 16.1682 36.4975C16.1682 36.3586 17.2455 34.4989 17.7142 33.8496C18.4171 32.7327 18.2285 33.3365 17.3398 34.7313C16.9169 35.4741 16.5425 36.1715 16.4968 36.2651ZM19.8688 35.8937C18.6029 36.1261 17.3855 36.3586 17.1998 36.3586L16.8254 36.404L17.0598 35.939C17.2455 35.5223 17.2941 35.4741 17.3398 35.7066C17.3398 35.8455 17.4341 35.9844 17.4798 35.9844C17.6199 35.9844 18.1828 34.5924 18.1371 34.3599C18.1371 34.1728 18.1828 34.0793 18.2771 34.1275C18.5114 34.1728 19.3544 32.8262 19.4002 32.2677C19.4459 32.0352 19.5402 31.851 19.6802 31.851C19.9631 31.8028 19.8688 31.8963 20.9004 30.3172C21.5091 29.3874 21.7434 28.8771 21.6948 28.69C21.6005 28.3186 22.1635 27.4823 22.5864 27.3887C22.8207 27.3433 23.1951 26.8784 23.8037 25.9967C24.6467 24.7408 24.7868 24.4148 24.5982 24.4148C24.4581 24.4148 23.6151 25.6707 23.6151 25.8096C23.6151 26.0421 22.5378 27.0655 22.4435 26.972C22.2578 26.8784 21.9291 27.2951 20.1031 30.2237C19.2144 31.6185 18.5114 32.6873 18.4629 32.6391C18.3686 32.5937 19.6345 30.5015 20.9918 28.4121C21.9291 26.972 22.3521 26.4588 22.5864 26.4135C22.9607 26.3681 23.1008 26.181 24.3638 24.1823C26.2842 21.163 28.3931 18.3281 28.6731 18.3281C28.816 18.3281 28.9075 18.3763 28.9075 18.4216C28.9075 18.6541 27.6444 20.3721 27.4558 20.3721C27.1757 20.3721 25.9584 21.954 25.9584 22.4643C25.9098 22.6968 25.8184 23.0682 25.6755 23.3006C25.4412 23.7656 25.4412 23.8591 25.584 23.8591C25.7241 23.8591 26.8014 22.3708 26.8014 22.2318C26.8014 22.1865 27.4558 21.2566 28.2531 20.1396C31.6708 15.3541 31.8594 15.0763 34.4827 11.731C34.857 11.2179 35.1856 10.7558 35.1856 10.6622C35.1856 10.614 35.2771 10.4751 35.42 10.4298C35.7 10.3362 37.1974 8.66356 37.106 8.57001C37.0574 8.52465 36.8231 8.70892 36.5887 8.94139C36.403 9.22206 36.2144 9.31278 36.263 9.26742C36.3544 8.98959 37.2917 8.01152 37.4317 8.10507C37.4803 8.10507 37.6661 8.05971 37.7604 7.8726C37.9004 7.73369 37.949 7.64013 37.8547 7.68833C37.7146 7.78188 37.6661 7.73369 37.7146 7.64013C37.7604 7.54941 37.9004 7.40766 38.089 7.40766C38.3233 7.3623 38.369 7.31694 38.3233 7.12983C38.229 7.03628 38.2747 6.99092 38.3233 7.03628C38.4633 7.17519 38.7434 6.852 38.7434 6.61953C38.7434 6.33887 39.4464 5.6443 39.6807 5.6443C39.775 5.6443 39.8207 5.5961 39.8207 5.45719C39.8207 5.31827 40.195 5.0858 40.3837 5.0858C40.4294 5.13116 40.618 4.99225 40.8037 4.80797C41.038 4.62086 41.5067 4.20129 41.881 3.92346C42.2097 3.64563 42.444 3.36496 42.444 3.3196C42.3983 3.27424 42.2097 3.36496 42.0696 3.50671L41.741 3.73918L42.0239 3.45852C42.304 3.08713 42.8669 2.76111 42.6783 2.99358C42.5383 3.27424 42.8183 3.18069 43.0527 2.90286C43.1927 2.76111 43.3356 2.62219 43.3813 2.62219C43.6156 2.62219 43.427 4.75978 43.147 5.92213C43.0069 6.52598 42.6783 7.50122 42.444 8.10507C41.9296 9.54525 41.5553 10.8012 41.5553 11.2179C41.5553 11.4504 41.3667 12.3349 41.0866 13.2166C40.3379 15.8644 39.3063 19.445 38.6977 21.628C38.369 22.7421 37.4803 26.181 36.683 29.2003C35.8858 32.2677 35.2314 34.7767 35.2314 34.7767C35.2314 34.8249 34.9513 34.7313 34.6684 34.5924C33.9197 34.2664 31.1107 34.221 29.0018 34.4535C26.9871 34.7313 23.1951 35.2898 19.8688 35.8937ZM19.8231 31.2471C20.1489 30.6433 21.5091 28.5964 21.6005 28.6446C21.6005 28.69 21.4148 29.0613 21.1347 29.4809C20.8518 29.8977 20.4775 30.5015 20.2889 30.734C20.1031 31.0147 19.8688 31.3378 19.7745 31.4796C19.6802 31.6185 19.7288 31.525 19.8231 31.2471Z" fill="white"/>
<path d="M78.3641 32.9224C78.3155 32.9224 78.2698 32.7835 78.3155 32.6417C78.3641 32.3639 78.3641 32.3639 78.0812 32.6899C77.8468 32.9678 77.8468 32.9224 78.1297 32.3186C78.5498 31.5276 78.4098 31.3887 77.9411 32.0861C77.7554 32.3186 77.5668 32.551 77.4725 32.551C77.3811 32.551 77.2382 32.6899 77.1467 32.9224C77.0524 33.1067 76.6781 33.6198 76.3037 34.0819C75.9265 34.5469 75.3664 35.2443 75.0378 35.7092C74.7092 36.1288 73.6804 37.2429 72.6974 38.1728C67.1679 43.5168 59.6752 48.1151 53.3056 50.0685C51.0567 50.7659 48.7163 50.9501 47.076 50.5334C45.953 50.2527 44.4527 49.4646 44.0784 48.9061C43.424 47.9309 43.1896 47.0945 43.1896 45.4673C43.1896 44.166 43.2811 43.7011 43.6097 42.3998C43.844 41.5635 44.267 40.3104 44.547 39.6584C44.8271 38.9609 45.11 38.2182 45.1557 38.0339C45.39 37.104 48.059 33.1549 49.6993 31.2951C51.151 29.6678 55.366 25.5344 55.6003 25.5344C55.646 25.5344 55.9289 25.3473 56.2575 25.1148C56.6319 24.837 57.2863 24.4174 57.8006 24.1396C58.3179 23.8618 59.0666 23.4422 59.4409 23.2097C60.5182 22.5123 61.3612 22.2345 62.3928 22.2345C63.5616 22.2345 64.2189 22.5123 64.3589 22.9773C64.4046 23.2097 64.4532 23.7682 64.4532 24.2332C64.4532 25.0695 64.4046 25.2538 63.5616 26.9264C62.4386 29.064 60.8926 31.434 59.6295 32.8289C58.7379 33.8523 57.5206 34.9211 57.2863 34.9211C57.2406 34.9211 56.9577 34.734 56.6319 34.4561C56.1632 34.0819 56.0232 34.0366 55.2259 34.0366H54.3829L54.3372 34.5951C54.2886 35.2443 54.663 35.8963 55.4117 36.5002C56.4433 37.3365 58.0836 37.4754 59.1609 36.8262C60.2839 36.1741 61.8299 34.5015 63.2816 32.3186C64.0303 31.2016 64.6389 30.2717 64.6389 30.181C64.6389 30.1328 64.9218 29.6225 65.2476 29.1122C65.5762 28.5537 66.0935 27.4395 66.3249 26.6032C66.7936 25.163 66.8422 25.1148 66.7021 24.2785C66.5135 23.1644 66.0449 22.5123 64.9676 21.7695C63.7045 20.8879 62.1099 20.7008 59.8153 21.1657C57.9435 21.5371 55.506 22.6512 54.5687 23.5357C54.2886 23.8136 54.0086 23.9525 53.82 23.9525C53.3999 23.8618 50.588 26.5097 48.482 28.8797C44.7328 33.1549 41.878 38.1246 41.1264 41.8441C40.5664 44.5856 40.8464 46.4907 42.2038 48.4412C42.3924 48.719 42.7667 49.3257 43.0468 49.7424C43.9383 51.0437 46.0444 52.345 48.059 52.8099C48.8563 52.9942 51.0109 52.9488 51.8997 52.7163C52.2283 52.671 52.9313 52.5292 53.4456 52.4385C55.9746 52.0189 61.0326 49.9295 62.8129 48.6283C63.1873 48.3023 64.4989 47.4206 65.7163 46.6296C66.8879 45.8386 68.6682 44.5856 69.6055 43.84C71.6658 42.3091 74.9435 39.0545 75.0835 38.4988C75.1321 38.3117 75.6951 37.5208 76.3495 36.778C77.0038 35.987 77.7068 35.0118 77.9897 34.4561C78.4584 33.5263 78.5984 32.9224 78.3641 32.9224ZM48.199 30.2717C48.5277 29.9003 48.7163 29.7614 48.5763 29.9485C48.199 30.5977 47.4989 31.2951 47.4989 31.1562C47.4989 31.0627 47.8247 30.6913 48.199 30.2717ZM46.4673 32.5028C46.7017 32.2704 46.796 32.1768 46.7017 32.3186C46.5131 32.7353 46.0444 33.2938 46.0444 33.1067C46.0444 33.0613 46.233 32.7835 46.4673 32.5028ZM45.9044 33.4781C45.9044 33.4781 45.7644 33.7105 45.5786 33.9912C45.39 34.2237 45.25 34.3626 45.25 34.3144C45.25 34.1755 45.9044 33.3392 45.9044 33.4781ZM42.1123 41.0532C42.018 41.4246 41.8294 42.1673 41.738 42.6805L41.5494 43.6557L41.5951 42.7712C41.5951 42.3091 41.7837 41.4728 41.9694 40.9143C42.581 39.1027 43.9383 36.1288 44.3584 35.7574C44.5927 35.5249 44.3127 36.2677 43.704 37.3365C43.1411 38.4506 42.4867 39.939 42.1123 41.0532ZM73.0232 40.2169C71.9944 41.331 70.6342 42.6323 70.2141 42.9583C70.0255 43.0518 69.4655 43.5168 68.9025 43.9335C68.3395 44.3985 67.4022 45.0959 66.7936 45.5608C65.5305 46.3971 65.1076 46.675 65.5762 46.2582C65.7163 46.1193 65.8591 45.9322 65.8591 45.8868C65.8591 45.6997 66.7479 44.9088 68.3395 43.7493C69.0425 43.1908 69.7912 42.5869 70.0255 42.3998C70.2599 42.2155 70.5428 42.0766 70.5885 42.122C70.6342 42.1673 70.6342 42.1673 70.6342 42.0766C70.5885 42.0284 70.9171 41.6117 71.3858 41.1921C71.8058 40.7271 72.7889 39.7066 73.5861 38.9156C74.5234 37.8922 74.9921 37.5208 74.9921 37.7079C74.9435 38.0339 74.1948 38.9609 73.0232 40.2169ZM76.2094 36.3131C75.8808 36.8716 75.4122 37.4301 75.4122 37.2429C75.4122 37.104 76.3952 35.8481 76.4438 35.8481C76.4895 35.8481 76.3952 36.0352 76.2094 36.3131Z" fill="white"/>
<path d="M103.362 29.1183C103.176 29.2572 102.659 29.535 102.659 29.5832C102.659 29.6739 102.519 29.7675 102.334 29.8611C102.145 29.9546 101.956 30.0482 101.911 30.0935C101.816 30.1871 100.879 30.8363 100.599 30.9752C100.365 31.1141 100.319 31.1141 100.225 30.9752C100.179 30.7909 99.7102 31.0234 98.4443 31.8597C97.9756 32.2311 97.4155 32.6025 97.2269 32.6961C97.0383 32.835 96.6183 33.161 96.1953 33.4388C95.821 33.7167 95.2609 34.1362 94.978 34.3205C94.6979 34.5076 93.5263 35.3439 92.309 36.1803C91.1859 36.9712 90.2001 37.6686 90.1543 37.6686C90.1086 37.6686 90.1086 37.6204 90.1086 37.5751C90.1086 37.4815 90.4344 37.1555 91.7003 36.0867C92.0289 35.7635 92.2633 35.531 92.2633 35.4829C92.2147 35.4375 92.0746 35.4829 91.9803 35.5764C91.4203 36.0867 89.1227 37.714 88.797 37.8529C88.6084 37.9465 88.4683 38.04 88.4683 38.0854C88.4683 38.1789 87.9997 38.505 87.4367 38.8763C86.548 39.5256 86.0336 39.8969 84.3934 41.1528C83.879 41.5696 83.9247 41.5696 82.4731 40.8268C79.4754 39.3413 78.9125 38.9671 78.0237 37.8529C77.5094 37.2491 77.4608 37.1101 77.5094 36.6906C77.7437 35.0179 80.647 31.6273 84.1133 29.0247C86.1737 27.4456 89.077 25.7248 90.8087 24.982C91.886 24.5171 91.7946 24.5625 93.0577 24.2846C93.7606 24.1457 94.0893 24.0068 94.4636 23.7261C94.8837 23.3547 94.9323 23.3094 94.838 23.1223C94.7437 23.0316 94.7437 22.8898 94.8837 22.7055C95.118 22.3341 95.0723 21.5432 94.7437 21.1718C94.5579 20.9847 94.3236 20.8458 94.2293 20.8458C94.0407 20.8004 93.995 20.7069 94.0407 20.5679C94.135 20.1484 93.7606 19.8705 92.9176 19.777C92.2633 19.6834 92.0746 19.7316 91.746 19.9159C91.5603 20.0095 91.0916 20.1966 90.8087 20.2901C89.9657 20.6133 88.7484 21.2654 87.111 22.1952C85.3764 23.264 83.316 24.6106 82.9874 24.9367C82.9417 24.982 82.5188 25.2599 82.0987 25.6312C79.0068 28.0495 76.3835 31.3012 75.6805 33.5324C75.4004 34.4141 75.3547 35.9024 75.589 36.5516C75.6805 36.8323 75.7748 37.1555 75.7291 37.2944C75.6348 37.9465 76.7578 40.3165 77.3665 40.6879C77.5094 40.7333 77.6008 40.8722 77.6494 41.0139C77.6951 41.3371 78.6324 42.1734 79.8498 42.9644C80.4584 43.384 81.0214 43.7554 81.0671 43.8461C81.1614 43.8943 81.35 43.9396 81.49 43.8943C81.6758 43.8461 81.7701 43.8943 81.7701 43.9396C81.7701 44.0786 80.1784 45.4734 79.9898 45.5669C79.9441 45.6123 79.9441 45.428 79.9898 45.2409C80.1784 44.776 80.0841 44.8242 78.961 45.8929C76.6178 48.1213 76.4778 48.263 76.3377 48.9576C76.2434 49.655 75.8234 50.4459 75.5405 50.5395C75.4004 50.5849 75.3061 50.6784 75.2604 50.9109C75.2118 51.0952 75.1661 51.1887 75.0718 51.1887C74.8375 51.1887 74.6517 51.699 74.5574 52.5835C74.4631 53.2327 74.5117 53.4652 74.6975 53.8366C74.7918 54.1173 74.8861 54.4405 74.8861 54.5822C74.8375 54.8147 75.1661 55.7417 75.3547 56.1159C75.4462 56.2548 75.8234 56.4873 76.1977 56.7198C76.9007 57.0912 76.9921 57.0912 78.1638 57.0912C79.7555 57.043 80.8328 56.7651 82.5188 55.9288C84.019 55.1861 85.2364 54.3951 86.1251 53.5134C86.7823 52.8614 87.4853 52.0732 87.531 51.9797C87.531 51.9315 87.6253 51.7926 87.7196 51.699C87.8111 51.6083 87.9054 51.4665 87.8597 51.4212C87.8111 51.3758 87.9054 51.3276 88.0454 51.3276C88.2797 51.3276 88.374 51.2369 88.5141 50.8173C88.797 50.2135 88.8427 49.7485 88.937 48.4473C89.0313 46.3097 88.3283 44.637 86.7823 43.3358C86.5937 43.1515 86.4537 42.9644 86.4537 42.8708C86.4537 42.7319 87.4853 41.8956 89.64 40.3619C90.2486 39.8969 90.8573 39.4802 90.903 39.432C90.9973 39.3866 91.5117 39.0153 92.0746 38.5957C92.6833 38.1789 93.6663 37.4362 94.3693 36.9712C95.0266 36.4581 95.7753 35.9478 96.0096 35.7635C96.6183 35.3893 97.367 34.8336 97.7413 34.553C97.8813 34.4141 98.2585 34.1362 98.5386 33.9491C99.2416 33.5324 100.879 32.37 100.973 32.2765C101.068 32.2311 103.971 30.1389 104.254 29.9546C104.394 29.9064 104.534 29.8157 104.674 29.7675C105.471 29.209 104.72 28.1431 103.362 29.1183ZM87.0167 46.6811L86.8766 47.1007C86.688 47.8434 85.7507 49.19 84.582 50.3524C83.879 51.0952 83.4561 51.5601 83.4103 51.8408C83.316 52.164 83.2217 52.2121 82.7531 52.3057C82.473 52.3511 82.1444 52.49 82.0044 52.6289C81.6301 52.9549 80.0841 53.5134 78.961 53.6977C77.7437 53.9302 76.9464 53.9302 76.432 53.7459C76.1034 53.6041 76.1034 53.5588 76.1491 53.1874C76.2434 52.6289 77.0407 51.3276 77.7437 50.6302C79.0068 49.3318 81.1614 47.2396 82.3787 46.1254L83.6447 44.9631L84.0647 45.102C84.2533 45.1955 85.002 45.6123 85.7507 45.9837L87.0167 46.6811Z" fill="white"/>
<path d="M19.8808 81.1879C18.0319 81.1879 20.1294 79.2147 21.3725 78.4407C21.8697 78.1232 23.93 76.9949 24.393 76.8531C23.5414 78.4407 22.0126 81.1879 19.8808 81.1879ZM18.7435 74.6333C18.7435 75.6199 18.5663 77.0998 19.5265 77.0998C20.2009 77.0998 20.7324 73.9615 22.5098 71.8125C23.2214 71.0017 23.79 70.6502 24.2158 70.6502C25.2817 70.6502 25.5646 72.6574 25.1045 74.6674C24.9245 75.4782 24.8902 75.3364 24.2158 75.6539C22.4755 76.5016 18.0319 78.6505 18.0319 80.6946C18.0319 81.7889 18.8492 82.2453 19.8465 82.2453C20.6609 82.2453 21.5868 81.9646 22.3669 81.4714C24.9959 79.8838 25.8504 76.6405 26.1333 76.1472C26.3104 75.8666 28.7994 74.5965 29.9368 73.7857C30.5054 73.2924 31.0712 72.904 31.6056 72.3427C31.7485 72.2718 33.4516 70.7891 31.9971 70.7891C31.7485 70.7891 30.1139 72.3058 29.4738 72.7651C28.1936 73.6808 27.9107 73.7857 26.5591 74.4916C26.5591 73.4341 26.9877 72.2349 26.1704 70.6842C25.7075 69.8734 25.0674 69.485 24.3587 69.485C23.4328 69.485 22.4384 70.12 21.6925 71.1435C21.3725 71.495 21.0896 71.8834 20.8753 72.3427L20.0951 73.6099C20.0951 70.7551 21.0896 63.1771 21.8697 60.2854C21.9069 59.9679 22.084 59.4746 22.084 59.3697C22.1183 59.1231 21.9069 58.7007 21.5868 58.7007C21.301 58.7007 20.9467 58.9813 20.5923 59.9339C19.2778 63.248 18.7435 71.1066 18.7435 74.6333Z" fill="white"/>
<path d="M32.4973 70.4725C32.7459 69.5909 33.9175 68.2159 34.8777 68.0401C34.772 69.1684 33.386 70.0133 32.4973 70.4725ZM30.897 71.3174C30.897 72.3039 30.8627 73.1856 31.7143 74.0304C32.3201 74.6315 33.0288 74.8781 33.7775 74.8781C35.9436 74.8781 38.3954 72.7264 39.7099 71.4223C40.03 71.0339 40.03 70.9998 39.9243 70.4725C38.8584 70.4725 39.4242 70.6114 37.9697 71.7398C37.721 71.9155 37.6124 72.0573 37.3295 72.2699C36.618 72.7972 35.1263 73.8207 33.8833 73.8207C33.4575 73.8207 33.0288 73.6789 32.7116 73.3614C32.1058 72.7632 32.1773 72.199 32.1773 71.4591C33.2774 71.3882 34.5577 70.3648 35.1263 69.7298C36.2265 68.3576 36.2265 66.9458 34.6634 66.9458C32.9602 66.9458 30.897 69.554 30.897 71.3174Z" fill="white"/>
<path d="M38.5722 73.299C38.5722 74.569 38.6779 75.1672 39.9924 75.1672C41.024 75.1672 42.1242 71.8531 42.8015 71.3967C42.8015 72.9106 43.936 74.7448 45.7134 74.7448C46.3164 74.7448 46.9936 74.5322 47.7023 74.0389L48.7682 73.1941C50.5799 71.4676 50.3685 70.5859 49.8341 70.5859C49.6226 70.5859 49.374 70.6908 49.1968 70.9374C48.6996 71.4676 48.591 71.7851 47.9166 72.3833C47.1336 73.1572 46.3878 73.5825 45.7134 73.5825C44.9676 73.5825 44.3274 73.0183 44.0445 71.7482C43.7245 70.4101 44.3274 68.8225 43.0844 68.8225C42.6214 68.8225 41.1669 71.8191 40.4554 72.9106L40.1725 73.3358C39.9924 73.5456 40.101 73.4067 39.9924 73.5116C39.9924 72.3492 40.4897 71.0083 40.9526 70.2684C41.9842 68.505 42.6929 68.0117 43.2273 68.0117C43.9017 68.0117 44.3274 68.8225 44.8247 68.8225C45.7505 68.8225 44.8247 66.8125 43.1558 66.8125C40.6697 66.8125 38.5722 71.2918 38.5722 73.299Z" fill="white"/>
<path d="M48.9002 72.549C48.9002 73.7482 48.723 75.4747 50.3575 75.4747C51.4606 75.4747 53.1294 72.7956 53.6981 71.809C53.9124 71.4206 54.4096 70.6098 54.6925 70.4341C54.6925 72.1266 54.8354 75.0523 57.1787 75.0523C58.2446 75.0523 59.4191 74.3123 60.3764 73.4307C60.805 73.0423 62.4396 71.7041 62.4396 71.1031C62.4396 70.7176 62.1538 70.6467 61.8709 70.6467C61.1936 70.6467 58.8504 73.9239 57.2873 73.9239C56.61 73.9239 56.0785 73.3258 55.8642 71.6333C55.7584 70.7176 56.2214 68.39 55.2612 68.39C54.5868 68.39 54.3725 68.9542 53.9124 69.6233L51.7806 72.7247C51.4234 73.184 51.0319 73.8531 50.4661 74.0288C49.9318 71.6673 52.0978 67.9676 52.0978 67.8259C52.0978 67.5084 51.9921 67.5084 51.9578 67.2617C51.7092 67.12 51.4949 67.0859 51.3177 67.0859C51.0319 67.0859 50.7833 67.2277 50.5347 67.5084C49.6489 68.6367 48.9002 71.0322 48.9002 72.549Z" fill="white"/>
<path d="M50.894 61.1192C50.894 61.6125 51.2512 61.7173 51.6399 61.7173C51.8542 61.7173 52.0685 61.6833 52.2457 61.6465C52.5658 60.9774 52.2085 61.1192 53.0973 60.7648C53.5231 60.589 53.8431 60.3424 54.2689 60.1666C56.4721 59.3218 58.4982 58.7208 60.8443 58.1566C61.1986 58.0517 62.0159 57.91 62.2274 57.8391L61.9102 61.1192C61.873 61.5756 61.8387 62.3524 61.7673 62.8117C61.5901 63.8323 61.553 68.5922 61.553 69.9303L61.4472 71.586C61.4472 74.1601 61.3415 78.3559 61.553 80.8932C61.553 81.7381 61.5901 83.0081 62.5131 83.0081C63.4361 83.0081 62.9046 80.5757 62.9046 79.7649C62.8332 78.2142 62.8675 71.1635 62.9761 70.1061C63.0446 69.3662 62.9761 67.7814 62.9761 66.758C62.9761 66.2647 63.0818 66.2647 63.0818 65.8054C63.0818 65.4539 63.0446 65.0315 63.0818 64.7139L63.7933 57.4875C64.6449 57.3118 70.0458 56.2883 72.0004 56.2883C72.249 56.2883 72.4262 56.2883 72.5691 56.3252C72.9949 56.4301 72.8863 56.2883 72.9949 56.6427C74.3437 56.6427 73.9179 55.2309 72.249 55.2309C70.0801 55.2309 67.9855 55.5853 65.9251 55.9708C65.3907 56.0417 64.6449 56.2543 64.0762 56.2543C64.0762 55.126 64.7878 56.0417 64.7878 55.126C64.7878 54.9134 64.7506 54.7744 64.7506 54.6667C64.7164 54.3152 64.7878 54.5987 64.7878 54.1734C64.7878 53.6093 64.502 53.1528 64.1105 53.1528C63.6505 53.1528 63.0818 53.7879 62.7274 55.6902C62.4788 56.8894 62.5846 56.5718 61.0929 56.9602C59.0668 57.5216 50.894 59.5316 50.894 61.1192Z" fill="white"/>
<path d="M66.0333 90.9794C65.4646 90.9794 64.8959 90.7668 64.6102 90.4153C63.1899 88.8985 64.6102 86.0437 65.4646 84.8445C66.3505 83.5064 67.2049 82.4121 68.3422 81.2866C68.6251 81.0399 68.768 80.7564 68.9823 80.5807L72.4629 77.5132C72.7458 77.3034 72.9601 77.1617 73.2459 76.9859C73.0659 79.1717 71.4313 85.4087 70.3654 87.3478C69.5138 88.8645 68.0565 90.9794 66.0333 90.9794ZM66.8505 73.7427C66.8505 70.3577 68.9452 67.9961 67.3821 67.9961C66.2104 67.9961 65.356 71.5229 65.356 73.0367C65.356 74.27 65.9247 75.0468 66.7077 75.0468C67.0992 75.0468 67.5249 74.8341 67.9507 74.4486C68.9109 73.5669 70.0111 71.7695 70.7226 70.6412C71.2913 69.8304 73.9546 65.2122 74.2746 64.9995C74.2746 69.0536 73.9546 71.452 73.5288 75.0468C73.4945 75.6818 73.1744 75.6818 72.5343 76.246C72.2486 76.4557 72.1086 76.5266 71.8599 76.7392C68.768 78.925 63.0128 84.7764 63.0128 88.6519C63.0128 90.7668 64.3616 92 66.1018 92C68.4479 92 70.474 89.8851 71.5027 87.9488C73.2459 85.128 74.4175 79.7698 74.9147 76.28C74.9862 75.7867 74.9147 75.7158 75.2691 75.4692C76.655 74.5166 78.1124 73.6009 79.5698 72.7901C79.9956 72.5435 82.2703 71.3811 82.2703 70.851C82.2703 70.5703 82.1274 70.4654 81.9502 70.4654C81.4158 70.4654 80.4585 71.2053 80.2442 71.3442L75.1634 74.27C75.1634 73.2834 75.4834 70.9927 75.4834 69.2293V66.5163C75.4834 65.8103 75.5177 63.2021 74.7719 63.2021C74.026 63.2021 74.026 63.4488 73.4574 64.3673C72.2143 66.4454 68.6623 72.827 66.8505 73.7427Z" fill="white"/>
</svg>
