<svg width="108" height="95" viewBox="0 0 108 95" fill="none" xmlns="http://www.w3.org/2000/svg">
<path d="M25.3007 38.7905C25.8327 38.6471 26.6498 38.5007 27.0848 38.4539C28.0489 38.3573 28.675 38.1172 28.675 37.8772C28.675 37.7835 28.722 37.7337 28.772 37.7337C28.866 37.7337 28.916 37.8303 28.916 37.9269C28.916 38.1172 29.6861 38.1172 31.3732 37.8303C32.2873 37.6869 35.7086 37.6371 35.8996 37.7835C35.9966 37.8303 35.9966 37.9738 35.8526 38.167C35.7556 38.3573 35.5146 39.2706 35.3235 40.2279C35.0825 41.188 34.7915 42.6751 34.6005 43.4919C32.4313 52.8478 31.8552 57.4057 32.5753 59.7564C32.7693 60.2863 32.9133 60.86 32.8663 60.9566C32.8663 61.4367 32.9133 61.5333 33.2984 62.0134C34.1184 62.9238 35.1766 63.644 35.8056 63.6908C36.1406 63.6908 36.4786 63.644 36.5756 63.5474C36.7667 63.4039 36.7667 62.877 36.5756 62.5403C36.5257 62.3969 36.3816 62.1071 36.3346 61.9168C36.2376 61.7236 36.0936 61.5333 35.9966 61.5333C35.7086 61.5333 35.5146 59.9028 35.5146 57.8858C35.5146 55.822 35.7086 54.2383 36.5257 50.5937C36.7667 49.3466 37.0077 48.1933 36.9607 48.0967C36.9607 47.9532 37.0077 47.7629 37.0577 47.6663C37.1517 47.5697 37.2017 47.3297 37.2487 47.1862C37.2987 46.8994 38.1158 43.2987 38.8388 40.3742C39.1269 39.3174 39.5149 37.6869 39.7559 36.6799C40.3819 33.9428 42.9332 24.2034 44.0913 20.1255C45.0524 16.9581 45.1494 16.4312 46.0664 13.0735C46.4985 11.2966 46.9805 9.42598 47.1246 8.89905C47.2686 8.3692 47.4155 7.79543 47.4155 7.55538C47.4155 7.36218 47.4626 6.69181 47.6066 6.06828C47.8976 4.57824 47.8006 3.09113 47.4155 2.371C47.0775 1.79723 46.4985 1.22054 46.2575 1.22054C46.2105 1.22054 45.9195 0.980492 45.6314 0.643843C44.8143 -0.266571 43.6563 -0.219733 42.0191 0.83705C40.767 1.70063 37.1047 5.39498 34.8885 8.08231C34.6005 8.4658 34.1184 9.04249 33.8304 9.32938C33.1073 10.1461 30.4561 13.5038 28.722 15.9511C27.8549 17.1016 26.9878 18.255 26.7968 18.495C26.5558 18.735 26.3618 18.9751 26.3618 19.0219C26.3618 19.1654 24.2896 22.2362 23.7606 22.9563C23.5666 23.1964 23.2785 23.4364 23.1815 23.4364C22.8935 23.4364 22.3644 23.8667 22.3644 24.1068C22.3644 24.3 20.5333 26.9873 20.1953 27.2742C20.0512 27.4176 19.9072 27.6109 19.9072 27.7075C19.9072 27.8011 19.8102 27.9475 19.7132 27.9475C19.5692 27.9943 19.4722 28.1378 19.4722 28.2344C19.4722 28.331 19.2812 28.8111 18.9902 29.2882C18.7021 29.7215 18.3641 30.2982 18.2671 30.4885C18.1231 30.6817 17.9791 30.9686 17.8821 31.0652C17.353 31.6419 17.159 31.9287 17.159 32.119C17.159 32.2654 16.968 32.6489 16.6799 32.9855C16.4389 33.3192 16.1979 33.6559 16.1979 33.7027C16.1979 33.7993 16.1479 33.9925 16.0039 34.2326C15.9069 34.4229 15.8599 34.6161 15.9569 34.6629C16.1479 34.8064 15.9569 34.9996 15.7159 34.903C15.6189 34.8561 15.5219 34.903 15.5219 35.0464C15.5219 35.1898 15.4749 35.2864 15.3779 35.2864C15.3308 35.2864 15.2338 35.4299 15.1368 35.6231C14.6548 36.8233 13.4497 38.4539 12.8237 38.6939C12.5356 38.8374 11.3805 39.1242 10.2724 39.414C7.8152 40.0376 3.8149 41.3315 2.37174 42.0048C1.3577 42.4351 1.31067 42.4849 1.3577 42.8684C1.55169 43.7319 1.74568 44.2589 1.93673 44.2589C2.03373 44.2589 2.13072 44.4023 2.13072 44.5487C2.13072 44.8356 2.27474 44.8824 2.51576 44.6423C2.65978 44.4989 2.65978 44.4989 2.65978 44.6423C2.65978 44.8824 3.04482 44.8356 3.14182 44.5955C3.28584 44.1623 9.06732 42.1014 11.1865 41.6681L11.6685 41.5715L11.3805 42.1482C9.7404 44.9322 7.04219 50.3537 5.455 53.9046C4.97296 55.0082 4.53795 56.0152 4.44096 56.1587C3.76787 57.6955 3.09185 59.2763 2.9978 59.613C2.94783 59.8062 2.85083 60.0462 2.80381 60.1399C2.51576 60.5263 1.16665 64.6041 0.540593 66.908C0.299576 67.915 0.0585586 68.8254 0.00859105 68.922C-0.0384367 69.0655 0.105586 69.3055 0.490626 69.6422C0.828638 69.8822 1.16665 70.1223 1.26365 70.1223C1.31067 70.1223 1.59872 70.3125 1.83974 70.456C2.75678 71.1293 3.33287 70.8424 3.57389 69.4987C3.62385 69.2089 3.76788 68.8254 3.8149 68.6351C3.95893 68.4419 4.29694 67.3852 4.58792 66.2815C4.923 65.1311 5.30804 63.7406 5.54905 63.117C5.79007 62.4935 5.93409 61.8202 5.93409 61.6299C5.93409 61.4367 6.03109 61.2933 6.12808 61.2933C6.22508 61.3401 6.32207 61.1001 6.41613 60.8132C6.46609 60.5263 6.56309 60.1399 6.61012 59.9964C7.09215 59.0392 7.8152 57.2623 8.44126 55.6786C9.40533 53.281 12.7766 46.4193 15.0898 42.2917C15.3308 41.8116 15.6659 41.188 15.8129 40.9012C16.1009 40.3742 16.1479 40.3245 17.065 40.1342C17.6411 39.9907 18.2201 39.8941 18.4141 39.8941C18.6051 39.8941 19.6162 39.7009 20.7243 39.4609C21.8324 39.2208 23.0845 39.0306 23.5195 39.0306C24.0016 38.9808 24.7717 38.8871 25.3007 38.7905ZM34.4564 36.3432C34.2625 36.3432 34.1184 36.2935 34.2154 36.2935C34.3095 36.2466 34.5035 36.2466 34.6475 36.2466C34.7445 36.2935 34.6975 36.3432 34.4564 36.3432ZM36.0436 40.2279C36.0936 40.0844 36.1406 40.0376 36.1406 40.181C36.1406 40.2776 36.0936 40.5177 36.0436 40.6611C35.9496 40.8046 35.8996 40.8543 35.8996 40.708C35.8996 40.6143 35.9966 40.3742 36.0436 40.2279ZM33.5894 56.9754C33.5394 58.1727 33.4424 58.5093 33.3954 58.2225C33.3484 58.0292 33.2984 57.5023 33.3484 57.0691C33.3954 56.6387 33.3954 56.2553 33.3484 56.1587C33.2514 55.822 33.0574 55.9684 33.0103 56.3987C32.9604 56.6387 32.9604 56.1587 32.9604 55.2951C33.0103 53.8548 33.2984 52.1277 33.4924 51.9374C33.5394 51.8876 33.5894 52.034 33.5894 52.3209C33.5894 52.7512 33.5894 52.7512 33.7804 52.5111C33.9744 52.2243 33.9244 51.7442 33.6834 51.6476C33.4924 51.5539 33.5394 51.2172 33.9244 49.777C34.3095 48.2899 34.8885 45.5557 35.0825 44.3086C35.3705 42.7249 35.8056 41.1412 35.9966 41.1412C36.1906 41.1412 36.3816 40.2279 36.3816 39.3174C36.3816 38.8374 36.4316 38.7905 36.7197 38.7407C37.2017 38.6939 37.2487 38.7407 37.1047 39.2706C36.2376 42.5317 34.7915 49.0568 34.1184 53.041C33.8774 54.3349 33.6834 56.0621 33.5894 56.9754ZM37.5397 34.0394C37.4427 33.7993 37.4427 33.7027 37.5867 33.6091C37.7308 33.5593 37.7807 33.369 37.7308 33.2724C37.6837 33.129 37.6837 33.0324 37.7807 32.9855C37.8748 32.9358 37.9718 32.5991 38.0188 32.2654C38.1158 31.4955 38.3568 30.7783 38.5978 30.4416C38.6948 30.2982 38.7918 30.0581 38.7918 29.9147C38.7918 29.7683 39.0799 28.6647 39.4649 27.4674C39.8499 26.2672 40.1409 25.1636 40.1409 25.0201C40.1409 24.9235 40.235 24.6835 40.3819 24.4903C40.526 24.3 40.767 23.7233 40.958 23.1964C41.152 22.6197 41.2961 22.1894 41.3431 22.2362C41.393 22.283 40.476 25.7871 40.091 27.0839C39.8999 27.6577 39.5619 28.9545 39.3209 29.9615C39.0799 30.9686 38.7419 32.5523 38.5008 33.4158C38.2598 34.3263 38.0188 35.6231 37.8748 36.2466C37.7308 36.9199 37.5867 37.4468 37.5397 37.4468C37.4427 37.4468 36.8637 36.15 36.8637 35.9597C36.8637 35.91 36.9607 35.7197 37.1047 35.6231C37.2017 35.4797 37.3457 35.2396 37.3457 35.0464C37.3927 34.8064 37.4897 34.6161 37.5397 34.5195C37.5867 34.4726 37.5867 34.2794 37.5397 34.0394ZM41.6341 23.6765C41.6341 23.8199 41.49 24.4434 41.2961 25.1167C40.958 26.3638 40.67 26.8907 40.717 26.2672C40.717 26.074 40.814 25.6905 40.958 25.4036C41.1021 25.1167 41.249 24.6835 41.249 24.4903C41.249 24.1068 41.6341 23.3398 41.6341 23.6765ZM38.8388 34.5663L38.6478 34.903V34.5663C38.6478 34.3263 38.6948 34.1828 38.7918 34.2326C38.8388 34.2794 38.9358 34.2326 38.9358 34.1828C38.9358 34.0891 38.9358 34.0394 38.9829 34.0891C39.0328 34.136 38.9829 34.3263 38.8388 34.5663ZM36.3816 48.1464C36.0436 49.777 35.5645 52.034 35.3235 53.0878C34.9355 55.0082 34.7915 55.4883 34.7915 54.9116C34.7915 54.7184 34.7445 54.6247 34.6975 54.6715C34.6005 54.7184 34.5505 55.0082 34.5505 55.3419C34.5505 55.6317 34.5035 56.4455 34.4065 57.1657C34.2625 58.1259 34.2625 58.6059 34.3595 59.3729C34.4564 59.9028 34.5035 60.3799 34.5035 60.4297C34.3595 60.5263 34.1184 59.3261 34.0214 58.2693C33.9244 56.6856 34.5035 52.1774 35.0825 49.9702C35.1766 49.7301 35.3705 48.6265 35.5645 47.5697C36.0436 45.0756 36.0436 45.0756 36.1906 45.0756C36.3346 45.0756 36.2376 45.4122 35.8996 46.8994C35.7556 47.4263 35.7086 47.8595 35.7556 47.9064C35.9496 47.9532 35.9496 48.1933 35.7556 48.1933C35.6586 48.1464 35.5645 48.243 35.5146 48.3865C35.5146 48.5299 35.5146 48.6265 35.6116 48.5299C35.7556 48.4831 35.7556 48.6265 35.6586 49.01C35.6586 49.2969 35.6116 49.5867 35.6586 49.5867C35.8526 49.5867 36.0436 48.9632 36.1406 48.1933C36.1906 47.7132 36.2376 47.2828 36.3346 47.2331C36.3346 47.2331 36.4316 47.0428 36.4316 46.8994C36.5756 45.4591 36.7197 44.8824 36.9107 45.0756C36.9607 45.1224 36.7197 46.5159 36.3816 48.1464ZM40.814 29.338C40.526 30.3919 40.188 31.7853 40.0439 32.4088C39.2239 35.7197 38.6478 38.2138 38.3098 39.6043C37.3927 43.5885 37.1047 44.7887 37.0077 44.7887C36.8167 44.7887 36.8167 44.5955 37.0577 43.5885C37.2017 43.1084 37.2487 42.6751 37.2017 42.6751C37.1047 42.5815 36.6726 43.445 36.5257 44.1154C36.4316 44.4521 36.2847 44.7389 36.1906 44.7887C35.9966 44.8356 36.0936 44.4521 36.4786 43.6353C36.6227 43.3484 36.7667 42.8684 36.7667 42.5815C36.7667 42.2917 36.8167 42.1482 36.9107 42.1482C37.0077 42.2448 37.0077 42.1482 36.9607 42.0516C36.9107 41.9082 36.9607 41.8116 37.1047 41.7647C37.2487 41.6681 37.3457 41.7647 37.3927 41.9579C37.4427 42.2448 37.4897 42.2448 37.5397 41.8613C37.7308 41.188 37.6837 40.8543 37.4897 40.8543C37.3457 40.8543 37.3457 40.6143 37.4427 39.7507C37.4897 39.1242 37.5867 38.5973 37.6837 38.5505C37.7308 38.5007 37.7807 38.2138 37.7807 37.8772C37.7807 37.5435 37.9247 37.157 38.0688 36.8702C38.2598 36.5833 38.3568 36.2935 38.3098 36.1998C38.1658 35.8631 38.5978 34.9996 38.9358 34.9527C39.1769 34.9527 39.2739 34.8064 39.3209 34.5663C39.3209 34.376 39.4179 33.9925 39.5619 33.6559C39.7559 32.9855 39.8029 32.7455 39.6089 32.8889C39.5619 32.9358 39.4179 33.129 39.4179 33.369C39.2239 34.136 38.9829 33.9925 39.1269 33.2226C39.1769 32.7923 39.2239 32.2156 39.2739 31.9287C39.3209 31.6419 39.4179 31.2086 39.5149 30.9686C39.6089 30.7285 39.7559 30.2982 39.8029 29.9615C39.8999 29.098 40.3819 27.5143 40.573 27.321C40.717 27.1308 40.767 27.0342 40.1409 29.5283C39.6589 31.5921 39.5619 32.2156 39.7559 32.3122C39.8029 32.3591 39.8999 32.2156 39.9469 31.9756C40.1409 30.9686 40.573 29.0511 40.767 28.3778C40.911 27.9943 41.008 27.5143 41.055 27.2742C41.1021 27.0839 41.1991 26.8439 41.249 26.7473C41.3431 26.6975 41.393 26.5072 41.393 26.3638C41.393 26.074 41.7781 25.2602 41.7781 25.5002C41.7781 25.6437 41.4401 27.0342 40.814 29.338ZM41.8751 25.2104C41.8251 25.307 41.8251 25.307 41.7781 25.1167C41.7781 24.9704 41.8251 24.9235 41.8751 24.9235C41.9221 25.0201 41.9221 25.1167 41.8751 25.2104ZM41.8751 22.9095C41.8251 23.0032 41.8251 22.9563 41.7781 22.8129C41.7781 22.6694 41.8251 22.5728 41.8751 22.6197C41.9221 22.6694 41.9221 22.8129 41.8751 22.9095ZM41.9221 21.8059C42.0191 21.4692 42.0191 21.4692 42.0661 21.8995C42.0661 22.1396 41.9691 22.3328 41.9221 22.3796C41.7781 22.4762 41.7781 22.283 41.9221 21.8059ZM43.1272 20.6525C43.0772 20.8457 42.9332 21.2292 42.8862 21.5161C42.8391 21.7561 42.5981 22.5728 42.4041 23.3398C42.2102 24.0599 42.0191 24.7303 41.9691 24.7801C41.8251 24.9235 41.9221 24.3468 42.2601 23.0998C42.4512 22.4294 42.6922 21.4692 42.8391 21.036C42.9332 20.6056 43.0772 20.1724 43.1742 20.0787C43.3182 19.8855 43.3182 20.1724 43.1272 20.6525ZM42.3571 20.5559C42.4512 20.4124 42.4512 20.4622 42.4041 20.7491C42.3571 20.9891 42.2601 21.2292 42.1631 21.276C42.0191 21.4692 42.1631 20.8925 42.3571 20.5559ZM42.5011 19.9323C42.5011 19.7889 42.5482 19.5986 42.5981 19.4523C42.7422 19.3088 42.7422 19.3088 42.7422 19.5489C42.7422 19.6923 42.6922 19.8855 42.5981 20.0289C42.5011 20.1724 42.5011 20.1724 42.5011 19.9323ZM43.0302 18.1115C43.0772 18.1115 43.1742 18.1583 43.1272 18.255C43.1272 18.3486 43.0772 18.5887 43.0302 18.735C42.9332 18.9253 42.8862 18.9253 42.8391 18.7819C42.7422 18.5418 42.8862 18.1115 43.0302 18.1115ZM43.3682 19.7421C43.3182 19.8855 43.3182 19.8387 43.3182 19.6923C43.3182 19.5489 43.3182 19.4523 43.3682 19.502C43.4152 19.5489 43.4152 19.6455 43.3682 19.7421ZM43.6563 18.7819C43.5122 19.1654 43.4152 19.262 43.4152 19.1185C43.4152 18.7819 43.6563 18.0149 43.7533 18.1115C43.8003 18.1583 43.7533 18.4452 43.6563 18.7819ZM44.1853 17.0079C43.9943 17.5817 43.8502 17.9183 43.8502 17.7251C43.8502 17.4382 44.3793 15.8545 44.4763 15.9511C44.4763 15.9979 44.3793 16.478 44.1853 17.0079ZM43.8973 15.8077C43.6092 16.8615 43.2712 17.7749 43.1742 17.8217C42.9332 17.8715 42.9832 17.6783 43.3182 16.6712C43.5122 16.1414 43.7533 15.4242 43.8502 15.0875C44.0413 14.4142 44.4263 13.5507 44.4763 13.697C44.5233 13.7907 44.2353 14.704 43.8973 15.8077ZM12.8237 41.2378C12.9207 41.2378 12.4886 42.0516 10.8015 45.219C10.4164 45.986 9.88443 46.9462 9.69338 47.3794C9.49939 47.8098 9.16431 48.5299 8.9233 48.9632C8.53826 49.777 8.29724 50.1136 8.29724 49.9204C8.29724 49.5369 12.5826 41.2378 12.8237 41.2378ZM8.15028 50.2571C8.24727 50.2571 8.29724 50.2571 8.29724 50.3039C8.29724 50.3537 8.24727 50.4005 8.15028 50.4503C8.05622 50.4971 8.00626 50.4503 8.00626 50.4005C8.00626 50.3039 8.05622 50.2571 8.15028 50.2571ZM7.33317 51.9374C7.43016 51.8876 7.47719 51.9374 7.47719 51.9842C7.47719 52.034 7.3802 52.1774 7.33317 52.2711C7.18915 52.4643 7.18915 52.4643 7.18915 52.2711C7.18915 52.1277 7.23617 51.9842 7.33317 51.9374ZM6.70711 54.5749C6.56309 54.7184 6.65715 54.4783 7.23617 53.281C7.90926 51.8876 7.95923 51.7939 7.67118 51.6476C7.52422 51.5539 7.52422 51.4573 7.76524 51.0738C8.00626 50.5439 8.10325 50.6903 7.86223 51.2641C7.76524 51.5041 7.76524 51.6007 7.86223 51.6007C7.95923 51.6007 8.15028 51.2641 8.39129 50.8338C8.72931 50.017 10.7045 46.0358 12.3416 42.9152C13.0647 41.4778 13.3557 41.0914 13.6437 40.9978C13.8348 40.9012 14.0288 40.9012 14.0288 40.9012C14.0288 40.948 13.7877 41.3315 13.5467 41.7179C13.3057 42.1014 13.0647 42.5317 13.0647 42.7249C13.0647 42.9152 12.9677 43.0118 12.8736 43.0118C12.7296 43.0118 12.6326 43.1552 12.6326 43.3484C12.6326 43.5387 12.5826 43.7319 12.5356 43.7319C12.4386 43.7319 12.3416 43.8285 12.2946 43.972C12.2476 44.0686 12.1506 44.2589 12.0536 44.4023C11.8126 44.6921 10.6075 46.9462 8.53826 51.024C7.57419 52.9444 6.75414 54.5281 6.70711 54.5749ZM10.7544 47.5697C10.7544 47.6663 10.6574 47.8098 10.6075 47.8595C10.4164 47.9532 10.4164 47.8098 10.6075 47.5229C10.7045 47.3297 10.7544 47.3794 10.7544 47.5697ZM12.0066 46.7061C11.9096 46.7061 11.2835 47.7132 10.6574 48.8168C10.3194 49.4403 10.0784 49.777 10.2224 49.4901C10.4164 48.8666 11.8126 46.4193 11.9566 46.4193C12.0536 46.4193 12.1006 46.5159 12.1006 46.5627C12.1006 46.6593 12.0536 46.7061 12.0066 46.7061ZM12.4886 45.7957C12.2476 46.2758 11.9566 46.4661 11.9566 46.1295C11.9566 45.8426 12.3916 45.219 12.5826 45.219C12.8736 45.219 12.8237 45.219 12.4886 45.7957ZM14.5108 41.7647C14.1728 42.3883 13.7877 43.1084 13.6907 43.445C13.5467 43.7319 13.3557 44.1623 13.2087 44.4023C12.9207 44.7887 12.6326 44.9322 12.6326 44.7389C12.6326 44.6423 13.0177 43.972 13.4497 43.1552C13.8847 42.3883 14.3668 41.5247 14.5108 41.2378C14.7518 40.8046 14.9928 40.5645 15.0898 40.6143C15.0898 40.6611 14.8488 41.188 14.5108 41.7647ZM14.6548 37.8303C14.9928 37.2068 16.486 34.5663 16.774 34.1828C16.871 33.9925 17.306 33.3192 17.6411 32.6957C18.3171 31.6419 18.6551 31.2554 18.4611 31.8819C18.4141 32.0722 18.3171 32.2156 18.2671 32.2654C18.0761 32.4088 16.63 34.7127 16.0509 35.8163C15.7159 36.4398 15.2809 37.2068 15.0898 37.5435C14.7048 38.2607 14.3168 38.5007 14.6548 37.8303ZM16.0509 37.3502C15.8599 37.6371 15.6189 37.9269 15.5219 38.0235C15.3308 38.1172 15.1368 38.167 15.1368 38.0704C15.1368 38.0235 15.3779 37.5435 15.7159 36.9668C16.0509 36.3901 16.3419 35.8163 16.3419 35.7197C16.3419 35.6231 16.389 35.5265 16.486 35.5265C16.533 35.4796 17.112 34.5663 17.788 33.4158C18.4611 32.3122 19.3282 30.8251 19.7632 30.2016C20.1482 29.5283 20.4363 28.9545 20.3893 28.9048C20.2923 28.7613 20.0013 29.1448 19.3752 30.345C18.7991 31.4955 18.4141 31.6887 18.7991 30.6319C19.0401 29.9615 19.9543 28.4744 20.1482 28.4744C20.2423 28.4744 22.0734 25.6905 22.0734 25.5471C22.0734 25.307 22.9405 24.3468 23.1815 24.3468C23.3256 24.3468 23.5195 24.2502 23.6165 24.1068C23.9516 23.7233 25.3007 21.7561 25.9767 20.6525C26.6028 19.5489 27.0848 19.0219 27.3729 18.9751C27.4229 18.9751 27.5669 18.9253 27.6639 18.9253C27.7579 18.9253 27.8549 18.8287 27.8549 18.735C27.8549 18.5887 27.7579 18.5418 27.6139 18.5887C27.5169 18.6384 27.7109 18.255 28.0959 17.7251C28.481 17.245 28.866 16.6712 29.01 16.478C29.107 16.3346 29.301 16.238 29.3481 16.2878C29.445 16.3346 29.4921 16.3346 29.445 16.1912C29.3481 16.0945 30.0241 15.1344 31.1322 13.697C32.1433 12.3534 33.2514 10.9131 33.5394 10.4798C33.8774 10.0495 34.2154 9.66602 34.2625 9.66602C34.3095 9.66602 34.8415 9.08933 35.4176 8.3692C36.7197 6.73865 40.67 2.66081 40.864 2.75741C41.1021 2.85109 41.49 2.61104 41.4401 2.42076C41.2961 2.08411 43.6092 0.550167 44.2353 0.550167C44.6203 0.550167 44.5733 0.790212 44.2353 0.883889C44.0913 0.933655 43.6563 1.1737 43.2712 1.36398C42.5011 1.79723 42.4041 1.84407 42.5482 1.60402C42.5981 1.50742 42.5981 1.46058 42.5482 1.50742C42.4041 1.65379 42.3571 2.18072 42.4512 2.18072C42.5011 2.18072 42.8862 1.98751 43.3182 1.74747C44.1383 1.26738 44.6674 1.22054 43.9443 1.65379C42.4041 2.61104 39.5619 5.25154 37.3927 7.79543C35.1766 10.2896 33.2984 12.5436 33.0574 12.9271C32.9133 13.1203 32.7223 13.3604 32.6253 13.5038C32.4813 13.6473 32.1903 14.0805 31.9992 14.464C31.8053 14.8475 31.3232 15.5179 30.9382 15.9043C30.6002 16.3346 30.3121 16.7678 30.3121 16.8147C30.3121 16.9113 30.2151 17.0547 30.1181 17.1016C30.0241 17.1513 29.7831 17.4851 29.639 17.8715C29.445 18.2052 29.107 18.6384 28.916 18.7819C28.675 18.9253 28.5309 19.1185 28.5309 19.2122C28.5309 19.262 28.24 19.7421 27.8549 20.1724C27.2759 20.9423 25.9268 22.8597 24.0986 25.6905C23.6636 26.3638 23.4226 26.6038 23.1345 26.6507C22.9405 26.6975 22.6995 26.8439 22.6525 26.9376C22.6054 27.0342 22.0264 27.9943 21.3504 29.0014C18.8462 32.7923 18.1231 33.9428 17.497 35.0464C17.306 35.4299 16.968 35.9597 16.774 36.2935C16.5829 36.5833 16.2449 37.0634 16.0509 37.3502ZM38.9358 7.02553C38.9358 7.12213 38.6948 7.31534 38.4538 7.55538C38.1158 7.88911 38.0688 7.88911 38.3098 7.64906C38.7419 7.07529 38.9358 6.88209 38.9358 7.02553ZM37.2487 8.89905C37.1517 9.04249 36.7197 9.56942 36.3346 10.0495C35.8996 10.5296 35.5146 11.0097 35.3705 11.0565C35.1295 11.2 36.8637 9.08933 37.2487 8.84929C37.4427 8.65901 37.4427 8.65901 37.2487 8.89905ZM34.9855 11.6332C34.8415 11.8235 34.6975 11.9699 34.6475 11.9699C34.6005 11.9699 34.6475 11.8235 34.7445 11.6332C34.8885 11.44 35.0825 11.2966 35.1295 11.2966C35.1766 11.2966 35.1295 11.44 34.9855 11.6332ZM30.4561 17.6314C30.3591 17.6783 30.3121 17.8217 30.3591 17.9183C30.4561 18.1583 30.2651 18.3486 30.0711 18.1583C29.9271 18.0149 30.1181 17.7251 30.8412 16.7678C31.3732 16.0477 32.0933 15.231 32.4313 14.8943C32.7693 14.5606 33.0103 14.1742 33.0103 14.0307C33.0103 13.8873 33.1073 13.7907 33.2014 13.7907C33.2984 13.7907 33.3484 13.697 33.3484 13.5507C33.2984 13.3106 33.3484 13.3106 33.4424 13.457C33.5394 13.6004 33.6364 13.5038 33.8304 13.0237C34.0214 12.6402 34.1655 12.3534 34.2154 12.4002C34.3595 12.5934 33.8774 13.457 33.0574 14.4142C32.6253 14.9909 32.1903 15.6145 32.0933 15.8077C31.8552 16.1912 30.6002 17.8217 30.5061 17.8217C30.4561 17.8217 30.4561 17.7749 30.5061 17.6783C30.6002 17.5817 30.5531 17.5817 30.4561 17.6314ZM29.8771 18.3486C29.8771 18.4452 29.8301 18.5418 29.7331 18.5887C29.6861 18.6384 29.5891 18.5887 29.5891 18.5418C29.5891 18.4452 29.6861 18.3486 29.7331 18.3018C29.8301 18.255 29.8771 18.3018 29.8771 18.3486ZM16.968 37.4468C16.871 37.6869 16.63 37.8303 16.63 37.6869C16.63 37.5435 17.7381 35.6231 18.2201 34.9527C18.9432 33.7993 18.7492 34.4229 17.8351 35.8631C17.4001 36.6301 17.015 37.3502 16.968 37.4468ZM20.4363 37.0634C19.1342 37.3034 17.8821 37.5435 17.691 37.5435L17.306 37.5903L17.547 37.1102C17.7381 36.6799 17.788 36.6301 17.8351 36.8702C17.8351 37.0136 17.9321 37.157 17.9791 37.157C18.1231 37.157 18.7021 35.7197 18.6551 35.4796C18.6551 35.2864 18.7021 35.1898 18.7991 35.2396C19.0401 35.2864 19.9072 33.8959 19.9543 33.3192C20.0013 33.0792 20.0983 32.8889 20.2423 32.8889C20.5333 32.8392 20.4363 32.9358 21.4974 31.3052C22.1234 30.345 22.3644 29.8181 22.3145 29.6249C22.2175 29.2414 22.7965 28.3778 23.2315 28.2812C23.4725 28.2344 23.8576 27.7543 24.4836 26.8439C25.3507 25.5471 25.4947 25.2104 25.3007 25.2104C25.1567 25.2104 24.2896 26.5072 24.2896 26.6507C24.2896 26.8907 23.1815 27.9475 23.0845 27.8509C22.8935 27.7543 22.5555 28.1846 20.6773 31.2086C19.7632 32.6489 19.0401 33.7525 18.9902 33.7027C18.8932 33.6559 20.1953 31.4955 21.5914 29.338C22.5555 27.8509 22.9905 27.321 23.2315 27.2742C23.6165 27.2274 23.7606 27.0342 25.0597 24.9704C27.0349 21.8527 29.204 18.9253 29.4921 18.9253C29.639 18.9253 29.7331 18.9751 29.7331 19.0219C29.7331 19.262 28.434 21.036 28.24 21.036C27.9519 21.036 26.6998 22.6694 26.6998 23.1964C26.6498 23.4364 26.5558 23.8199 26.4088 24.0599C26.1678 24.54 26.1678 24.6366 26.3148 24.6366C26.4588 24.6366 27.5669 23.0998 27.5669 22.9563C27.5669 22.9095 28.24 21.9493 29.06 20.7959C32.5753 15.8545 32.7693 15.5676 35.4675 12.1133C35.8526 11.5835 36.1906 11.1063 36.1906 11.0097C36.1906 10.9599 36.2847 10.8165 36.4316 10.7696C36.7197 10.673 38.2598 8.94589 38.1658 8.84929C38.1158 8.80245 37.8748 8.99273 37.6338 9.23277C37.4427 9.52258 37.2487 9.61626 37.2987 9.56942C37.3927 9.28254 38.3568 8.27259 38.5008 8.3692C38.5508 8.3692 38.7419 8.32236 38.8388 8.12915C38.9829 7.98571 39.0328 7.88911 38.9358 7.93887C38.7918 8.03547 38.7419 7.98571 38.7918 7.88911C38.8388 7.79543 38.9829 7.64906 39.1769 7.64906C39.4179 7.60222 39.4649 7.55538 39.4179 7.36218C39.3209 7.26557 39.3679 7.21874 39.4179 7.26557C39.5619 7.40902 39.8499 7.07529 39.8499 6.83525C39.8499 6.54544 40.573 5.82823 40.814 5.82823C40.911 5.82823 40.958 5.77847 40.958 5.63502C40.958 5.49158 41.3431 5.25154 41.5371 5.25154C41.5841 5.29838 41.7781 5.15493 41.9691 4.96465C42.2102 4.77145 42.6922 4.3382 43.0772 4.05131C43.4152 3.76443 43.6563 3.47462 43.6563 3.42778C43.6092 3.38094 43.4152 3.47462 43.2712 3.62099L42.9332 3.86103L43.2242 3.57122C43.5122 3.18774 44.0913 2.85109 43.8973 3.09113C43.7533 3.38094 44.0413 3.28434 44.2823 2.99746C44.4263 2.85109 44.5733 2.70765 44.6203 2.70765C44.8613 2.70765 44.6674 4.91489 44.3793 6.11511C44.2353 6.73865 43.8973 7.74566 43.6563 8.3692C43.1272 9.8563 42.7422 11.1531 42.7422 11.5835C42.7422 11.8235 42.5482 12.7368 42.2601 13.6473C41.49 16.3814 40.429 20.0787 39.8029 22.3328C39.4649 23.4833 38.5508 27.0342 37.7308 30.1518C36.9107 33.3192 36.2376 35.91 36.2376 35.91C36.2376 35.9597 35.9496 35.8631 35.6586 35.7197C34.8885 35.383 31.9992 35.3362 29.8301 35.5763C27.7579 35.8631 23.8576 36.4398 20.4363 37.0634ZM20.3893 32.2654C20.7243 31.6419 22.1234 29.5283 22.2175 29.5781C22.2175 29.6249 22.0264 30.0084 21.7384 30.4416C21.4474 30.872 21.0623 31.4955 20.8684 31.7355C20.6773 32.0253 20.4363 32.3591 20.3393 32.5054C20.2423 32.6489 20.2923 32.5523 20.3893 32.2654Z" fill="#4E4848"/>
<path d="M80.6023 33.9952C80.5523 33.9952 80.5053 33.8518 80.5523 33.7054C80.6023 33.4185 80.6023 33.4185 80.3113 33.7552C80.0703 34.0421 80.0703 33.9952 80.3613 33.3717C80.7933 32.5549 80.6493 32.4115 80.1673 33.1316C79.9762 33.3717 79.7822 33.6117 79.6852 33.6117C79.5912 33.6117 79.4442 33.7552 79.3502 33.9952C79.2532 34.1855 78.8681 34.7154 78.4831 35.1925C78.0951 35.6726 77.519 36.3927 77.181 36.8728C76.843 37.3061 75.7849 38.4565 74.7738 39.4167C69.0863 44.9348 61.3797 49.683 54.8281 51.7C52.5149 52.4201 50.1077 52.6104 48.4206 52.1801C47.2654 51.8903 45.7223 51.0765 45.3373 50.4998C44.6642 49.4928 44.4232 48.6292 44.4232 46.9489C44.4232 45.6052 44.5173 45.1251 44.8553 43.7814C45.0963 42.9179 45.5313 41.624 45.8193 40.9507C46.1074 40.2305 46.3984 39.4636 46.4454 39.2733C46.6864 38.3131 49.4317 34.2353 51.1188 32.3149C52.6119 30.6346 56.9473 26.3665 57.1883 26.3665C57.2353 26.3665 57.5263 26.1733 57.8643 25.9332C58.2494 25.6463 58.9225 25.2131 59.4515 24.9262C59.9835 24.6393 60.7536 24.2061 61.1386 23.966C62.2467 23.2459 63.1138 22.959 64.1749 22.959C65.377 22.959 66.053 23.2459 66.1971 23.726C66.2441 23.966 66.2941 24.5427 66.2941 25.0228C66.2941 25.8864 66.2441 26.0767 65.377 27.8038C64.2219 30.0111 62.6318 32.4583 61.3326 33.8986C60.4156 34.9554 59.1635 36.059 58.9225 36.059C58.8754 36.059 58.5844 35.8658 58.2494 35.5789C57.7673 35.1925 57.6233 35.1457 56.8033 35.1457H55.9362L55.8892 35.7224C55.8392 36.3927 56.2242 37.066 56.9943 37.6896C58.0554 38.5531 59.7425 38.6966 60.8506 38.0262C62.0057 37.3529 63.5958 35.6258 65.089 33.3717C65.8591 32.2183 66.4851 31.2581 66.4851 31.1644C66.4851 31.1147 66.7761 30.5877 67.1112 30.0608C67.4492 29.4841 67.9812 28.3337 68.2193 27.4701C68.7013 25.983 68.7513 25.9332 68.6072 25.0696C68.4133 23.9192 67.9312 23.2459 66.8231 22.4789C65.524 21.5685 63.8839 21.3753 61.5237 21.8554C59.5985 22.2389 57.0913 23.3893 56.1272 24.3027C55.8392 24.5895 55.5512 24.733 55.3572 24.733C54.9251 24.6393 52.0329 27.3735 49.8667 29.8208C46.0104 34.2353 43.0741 39.367 42.3011 43.2077C41.725 46.0385 42.013 48.0057 43.4092 50.0197C43.6032 50.3066 43.9882 50.933 44.2762 51.3634C45.1933 52.707 47.3595 54.0507 49.4317 54.5308C50.2517 54.7211 52.4679 54.6742 53.382 54.4342C53.72 54.3873 54.4431 54.241 54.9721 54.1473C57.5734 53.714 62.7758 51.5566 64.6069 50.2129C64.992 49.8762 66.3411 48.9658 67.5932 48.1491C68.7983 47.3324 70.6294 46.0385 71.5935 45.2686C73.7127 43.6878 77.084 40.3271 77.228 39.7534C77.278 39.5602 77.857 38.7434 78.5301 37.9765C79.2032 37.1597 79.9262 36.1527 80.2172 35.5789C80.6993 34.6187 80.8433 33.9952 80.6023 33.9952ZM49.5757 31.2581C49.9137 30.8746 50.1077 30.7312 49.9637 30.9244C49.5757 31.5948 48.8556 32.3149 48.8556 32.1715C48.8556 32.0749 49.1906 31.6914 49.5757 31.2581ZM47.7945 33.562C48.0355 33.3219 48.1325 33.2253 48.0355 33.3717C47.8415 33.802 47.3595 34.3787 47.3595 34.1855C47.3595 34.1387 47.5535 33.8518 47.7945 33.562ZM47.2155 34.569C47.2155 34.569 47.0715 34.809 46.8804 35.0988C46.6864 35.3389 46.5424 35.4823 46.5424 35.4326C46.5424 35.2891 47.2155 34.4255 47.2155 34.569ZM43.3151 42.3909C43.2181 42.7744 43.0241 43.5414 42.9301 44.0713L42.7361 45.0783L42.7831 44.1649C42.7831 43.6878 42.9771 42.8242 43.1682 42.2475C43.7971 40.3769 45.1933 37.3061 45.6254 36.9226C45.8664 36.6825 45.5783 37.4495 44.9523 38.5531C44.3732 39.7036 43.7002 41.2405 43.3151 42.3909ZM75.1088 41.5274C74.0507 42.6778 72.6516 44.0215 72.2196 44.3581C72.0256 44.4547 71.4495 44.9348 70.8705 45.3652C70.2914 45.8452 69.3274 46.5654 68.7013 47.0455C67.4022 47.909 66.9672 48.1959 67.4492 47.7656C67.5932 47.6222 67.7402 47.429 67.7402 47.3821C67.7402 47.1889 68.6543 46.3722 70.2914 45.1749C71.0145 44.5982 71.7846 43.9747 72.0256 43.7814C72.2666 43.5912 72.5576 43.4477 72.6046 43.4946C72.6516 43.5414 72.6516 43.5414 72.6516 43.4477C72.6046 43.398 72.9426 42.9676 73.4247 42.5344C73.8567 42.0543 74.8678 41.0004 75.6879 40.1837C76.6519 39.1269 77.134 38.7434 77.134 38.9366C77.084 39.2733 76.3139 40.2305 75.1088 41.5274ZM78.3861 37.4964C78.0481 38.0731 77.566 38.6497 77.566 38.4565C77.566 38.3131 78.5771 37.0163 78.6271 37.0163C78.6741 37.0163 78.5771 37.2095 78.3861 37.4964Z" fill="#4E4848"/>
<path d="M106.314 30.0673C106.123 30.2107 105.591 30.4976 105.591 30.5474C105.591 30.641 105.447 30.7376 105.256 30.8343C105.062 30.9309 104.868 31.0275 104.821 31.0743C104.724 31.1709 103.76 31.8413 103.472 31.9847C103.231 32.1282 103.184 32.1282 103.087 31.9847C103.04 31.7944 102.558 32.0345 101.256 32.8981C100.774 33.2815 100.198 33.665 100.004 33.7616C99.8099 33.9051 99.3778 34.2417 98.9428 34.5286C98.5578 34.8155 97.9817 35.2487 97.6907 35.439C97.4026 35.6322 96.1975 36.4958 94.9454 37.3594C93.7903 38.1761 92.7763 38.8963 92.7293 38.8963C92.6822 38.8963 92.6822 38.8465 92.6822 38.7997C92.6822 38.703 93.0173 38.3664 94.3194 37.2628C94.6574 36.9291 94.8984 36.689 94.8984 36.6392C94.8484 36.5924 94.7044 36.6392 94.6074 36.7358C94.0313 37.2628 91.6682 38.9431 91.3331 39.0865C91.1391 39.1831 90.9951 39.2797 90.9951 39.3266C90.9951 39.4232 90.5131 39.7598 89.934 40.1433C89.0199 40.8137 88.4909 41.1972 86.8038 42.494C86.2747 42.9243 86.3217 42.9243 84.8286 42.1574C81.7453 40.6234 81.1663 40.237 80.2522 39.0865C79.7231 38.463 79.6732 38.3196 79.7231 37.8863C79.9641 36.1592 82.9504 32.658 86.5157 29.9707C88.6349 28.3401 91.6212 26.5632 93.4023 25.7962C94.5104 25.3161 94.4164 25.363 95.7155 25.0761C96.4386 24.9327 96.7766 24.7892 97.1616 24.4994C97.5937 24.1159 97.6437 24.0691 97.5467 23.8759C97.4497 23.7822 97.4497 23.6358 97.5937 23.4455C97.8347 23.0621 97.7877 22.2453 97.4497 21.8618C97.2586 21.6686 97.0176 21.5252 96.9206 21.5252C96.7266 21.4784 96.6796 21.3817 96.7266 21.2383C96.8236 20.8051 96.4386 20.5182 95.5715 20.4216C94.8984 20.325 94.7044 20.3747 94.3664 20.565C94.1754 20.6616 93.6933 20.8548 93.4023 20.9514C92.5353 21.2851 91.2831 21.9584 89.599 22.9186C87.8148 24.0222 85.6957 25.4127 85.3576 25.7494C85.3106 25.7962 84.8756 26.0831 84.4435 26.4666C81.2633 28.9637 78.5651 32.3214 77.842 34.6252C77.554 35.5356 77.5069 37.0725 77.748 37.7429C77.842 38.0327 77.939 38.3664 77.892 38.5098C77.795 39.1831 78.9501 41.6304 79.5762 42.0139C79.7231 42.0608 79.8172 42.2042 79.8672 42.3506C79.9142 42.6843 80.8782 43.5479 82.1304 44.3646C82.7564 44.7978 83.3355 45.1813 83.3825 45.275C83.4795 45.3248 83.6735 45.3716 83.8175 45.3248C84.0085 45.275 84.1055 45.3248 84.1055 45.3716C84.1055 45.5151 82.4684 46.9553 82.2744 47.0519C82.2274 47.0988 82.2274 46.9085 82.2744 46.7153C82.4684 46.2352 82.3714 46.285 81.2163 47.3886C78.8061 49.6895 78.6621 49.8359 78.518 50.5531C78.421 51.2732 77.989 52.09 77.698 52.1866C77.554 52.2334 77.457 52.33 77.4099 52.57C77.36 52.7603 77.313 52.8569 77.216 52.8569C76.9749 52.8569 76.7839 53.3839 76.6869 54.2972C76.5899 54.9676 76.6399 55.2076 76.8309 55.5911C76.9279 55.8809 77.0249 56.2146 77.0249 56.361C76.9749 56.601 77.313 57.5583 77.5069 57.9447C77.601 58.0882 77.989 58.3282 78.374 58.5682C79.0971 58.9517 79.1911 58.9517 80.3962 58.9517C82.0334 58.902 83.1415 58.6151 84.8756 57.7515C86.4187 56.9845 87.6708 56.1678 88.5849 55.2574C89.261 54.5841 89.984 53.7703 90.031 53.6737C90.031 53.6239 90.128 53.4805 90.225 53.3839C90.3191 53.2902 90.4161 53.1438 90.369 53.097C90.3191 53.0501 90.4161 53.0004 90.5601 53.0004C90.8011 53.0004 90.8981 52.9067 91.0421 52.4734C91.3331 51.8499 91.3801 51.3698 91.4771 50.0261C91.5741 47.8189 90.8511 46.0918 89.261 44.7481C89.067 44.5578 88.9229 44.3646 88.9229 44.268C88.9229 44.1246 89.984 43.261 92.2002 41.6773C92.8262 41.1972 93.4523 40.7669 93.4993 40.7171C93.5963 40.6702 94.1254 40.2868 94.7044 39.8535C95.3305 39.4232 96.3416 38.6562 97.0646 38.1761C97.7407 37.6463 98.5107 37.1193 98.7517 36.9291C99.3778 36.5426 100.148 35.9689 100.533 35.6791C100.677 35.5356 101.065 35.2487 101.353 35.0555C102.076 34.6252 103.76 33.425 103.857 33.3284C103.954 33.2815 106.94 31.1211 107.231 30.9309C107.375 30.8811 107.519 30.7874 107.664 30.7376C108.484 30.161 107.711 29.0603 106.314 30.0673ZM89.502 48.2024L89.3579 48.6356C89.164 49.4026 88.1999 50.7931 86.9977 51.9933C86.2747 52.7603 85.8397 53.2404 85.7927 53.5302C85.6957 53.8639 85.5987 53.9137 85.1166 54.0103C84.8286 54.0571 84.4906 54.2006 84.3465 54.344C83.9615 54.6807 82.3714 55.2574 81.2163 55.4477C79.9641 55.6877 79.1441 55.6877 78.615 55.4974C78.277 55.3511 78.277 55.3042 78.3241 54.9207C78.421 54.344 79.2411 53.0004 79.9641 52.2802C81.2633 50.9395 83.4795 48.7791 84.7316 47.6286L86.0337 46.4284L86.4657 46.5718C86.6597 46.6684 87.4298 47.0988 88.1999 47.4823L89.502 48.2024Z" fill="#4E4848"/>
<path d="M20.4486 83.8337C18.5469 83.8337 20.7043 81.7963 21.9828 80.9971C22.4943 80.6692 24.6135 79.5041 25.0896 79.3578C24.2137 80.9971 22.6412 83.8337 20.4486 83.8337ZM19.2787 77.0656C19.2787 78.0844 19.0965 79.6125 20.0841 79.6125C20.7778 79.6125 21.3245 76.3719 23.1527 74.1529C23.8845 73.3157 24.4694 72.9527 24.9074 72.9527C26.0037 72.9527 26.2947 75.0253 25.8215 77.1008C25.6363 77.938 25.601 77.7916 24.9074 78.1195C23.1174 78.9948 18.5469 81.2137 18.5469 83.3244C18.5469 84.4543 19.3875 84.9257 20.4133 84.9257C21.251 84.9257 22.2033 84.6358 23.0057 84.1265C25.7098 82.4871 26.5886 79.1382 26.8796 78.6289C27.0618 78.3391 29.6219 77.0276 30.7917 76.1904C31.3766 75.681 31.9586 75.2799 32.5082 74.7003C32.6552 74.6271 34.407 73.0961 32.9109 73.0961C32.6552 73.0961 30.974 74.6623 30.3156 75.1365C28.9988 76.082 28.7078 76.1904 27.3176 76.9193C27.3176 75.8274 27.7584 74.5891 26.9178 72.9878C26.4417 72.1506 25.7833 71.7495 25.0543 71.7495C24.102 71.7495 23.0792 72.4053 22.312 73.462C21.9828 73.825 21.6919 74.2261 21.4714 74.7003L20.669 76.0089C20.669 73.061 21.6919 65.2361 22.4943 62.2502C22.5325 61.9223 22.7147 61.4129 22.7147 61.3046C22.75 61.0499 22.5325 60.6138 22.2033 60.6138C21.9094 60.6138 21.5449 60.9036 21.1804 61.8872C19.8284 65.3093 19.2787 73.424 19.2787 77.0656Z" fill="#4E4848"/>
<path d="M33.4255 72.7696C33.6812 71.8592 34.8863 70.4394 35.8739 70.2579C35.7651 71.423 34.3396 72.2954 33.4255 72.7696ZM31.7795 73.6419C31.7795 74.6607 31.7442 75.5711 32.6201 76.4434C33.2432 77.0641 33.9722 77.3187 34.7422 77.3187C36.9702 77.3187 39.4921 75.0969 40.8441 73.7503C41.1733 73.3492 41.1733 73.3141 41.0645 72.7696C39.9682 72.7696 40.5502 72.913 39.0541 74.0781C38.7984 74.2596 38.6867 74.406 38.3957 74.6255C37.6638 75.17 36.1296 76.2268 34.851 76.2268C34.413 76.2268 33.9722 76.0805 33.6459 75.7526C33.0228 75.1349 33.0963 74.5524 33.0963 73.7883C34.2279 73.7151 35.5447 72.6583 36.1296 72.0026C37.2612 70.5858 37.2612 69.1279 35.6534 69.1279C33.9016 69.1279 31.7795 71.8211 31.7795 73.6419Z" fill="#4E4848"/>
<path d="M39.6738 75.6876C39.6738 76.9991 39.7826 77.6167 41.1346 77.6167C42.1957 77.6167 43.3273 74.1946 44.0239 73.7233C44.0239 75.2865 45.1908 77.1806 47.019 77.1806C47.6392 77.1806 48.3358 76.961 49.0647 76.4516L50.161 75.5793C52.0245 73.7965 51.807 72.8861 51.2574 72.8861C51.0399 72.8861 50.7841 72.9944 50.6019 73.2491C50.0905 73.7965 49.9788 74.1244 49.2851 74.742C48.4798 75.5412 47.7126 75.9803 47.019 75.9803C46.2518 75.9803 45.5935 75.3978 45.3025 74.0863C44.9733 72.7046 45.5935 71.0653 44.3149 71.0653C43.8387 71.0653 42.3427 74.1595 41.6108 75.2865L41.3198 75.7256C41.1346 75.9423 41.2463 75.7988 41.1346 75.9071C41.1346 74.7069 41.6461 73.3223 42.1222 72.5582C43.1833 70.7374 43.9122 70.228 44.4618 70.228C45.1555 70.228 45.5935 71.0653 46.1049 71.0653C47.0572 71.0653 46.1049 68.9897 44.3884 68.9897C41.8312 68.9897 39.6738 73.615 39.6738 75.6876Z" fill="#4E4848"/>
<path d="M50.2968 74.913C50.2968 76.1513 50.1146 77.9341 51.7958 77.9341C52.9304 77.9341 54.6469 75.1677 55.2318 74.149C55.4522 73.7479 55.9636 72.9107 56.2546 72.7292C56.2546 74.4769 56.4016 77.4979 58.8118 77.4979C59.9081 77.4979 61.1161 76.7339 62.1008 75.8234C62.5417 75.4224 64.2229 74.0407 64.2229 73.4201C64.2229 73.0219 63.929 72.9488 63.638 72.9488C62.9414 72.9488 60.5312 76.3328 58.9235 76.3328C58.2269 76.3328 57.6802 75.7151 57.4597 73.9675C57.351 73.0219 57.8271 70.6186 56.8395 70.6186C56.1459 70.6186 55.9254 71.2011 55.4522 71.892L53.2596 75.0945C52.8921 75.5688 52.4895 76.2596 51.9075 76.4411C51.3579 74.0026 53.5858 70.1824 53.5858 70.036C53.5858 69.7082 53.4771 69.7082 53.4418 69.4535C53.1861 69.3071 52.9656 69.272 52.7834 69.272C52.4895 69.272 52.2338 69.4183 51.978 69.7082C51.0669 70.8732 50.2968 73.3469 50.2968 74.913Z" fill="#4E4848"/>
<path d="M52.3477 63.1112C52.3477 63.6206 52.7151 63.7289 53.1148 63.7289C53.3352 63.7289 53.5557 63.6937 53.7379 63.6557C54.0671 62.9648 53.6997 63.1112 54.6138 62.7453C55.0518 62.5638 55.3809 62.3091 55.8189 62.1276C58.085 61.2552 60.169 60.6346 62.5821 60.0521C62.9465 59.9438 63.7872 59.7974 64.0047 59.7242L63.6784 63.1112C63.6402 63.5825 63.6049 64.3846 63.5315 64.8588C63.3492 65.9127 63.311 70.8278 63.311 72.2095L63.2023 73.9191C63.2023 76.5771 63.0935 80.9097 63.311 83.5297C63.311 84.402 63.3492 85.7135 64.2986 85.7135C65.248 85.7135 64.7013 83.2018 64.7013 82.3646C64.6278 80.7633 64.6631 73.4829 64.7748 72.391C64.8453 71.6269 64.7748 69.9905 64.7748 68.9337C64.7748 68.4244 64.8835 68.4244 64.8835 67.9501C64.8835 67.5872 64.8453 67.151 64.8835 66.8231L65.6154 59.3612C66.4913 59.1797 72.0464 58.1229 74.0569 58.1229C74.3126 58.1229 74.4948 58.1229 74.6418 58.161C75.0797 58.2693 74.968 58.1229 75.0797 58.4889C76.467 58.4889 76.0291 57.031 74.3126 57.031C72.0817 57.031 69.9272 57.3969 67.808 57.7951C67.2584 57.8683 66.4913 58.0878 65.9064 58.0878C65.9064 56.9227 66.6382 57.8683 66.6382 56.9227C66.6382 56.7032 66.6 56.5597 66.6 56.4485C66.5647 56.0855 66.6382 56.3782 66.6382 55.9391C66.6382 55.3566 66.3443 54.8853 65.9416 54.8853C65.4684 54.8853 64.8835 55.541 64.519 57.5053C64.2633 58.7435 64.3721 58.4157 62.8378 58.8167C60.7539 59.3963 52.3477 61.4719 52.3477 63.1112Z" fill="#4E4848"/>
<path d="M67.9193 93.9442C67.3344 93.9442 66.7495 93.7246 66.4555 93.3616C64.9947 91.7955 66.4555 88.8476 67.3344 87.6093C68.2455 86.2276 69.1244 85.0976 70.2942 83.9355C70.5852 83.6808 70.7321 83.388 70.9526 83.2066L74.5326 80.0391C74.8235 79.8225 75.044 79.6761 75.3379 79.4946C75.1527 81.7516 73.4715 88.1919 72.3752 90.1942C71.4993 91.7604 70.0003 93.9442 67.9193 93.9442ZM68.7599 76.1457C68.7599 72.6504 70.9144 70.2119 69.3066 70.2119C68.1015 70.2119 67.2227 73.8536 67.2227 75.4168C67.2227 76.6902 67.8076 77.4923 68.6129 77.4923C69.0156 77.4923 69.4536 77.2728 69.8915 76.8746C70.8791 75.9642 72.0107 74.1083 72.7426 72.9432C73.3275 72.1059 76.0668 67.3372 76.396 67.1177C76.396 71.3038 76.0668 73.7804 75.6289 77.4923C75.5936 78.148 75.2644 78.148 74.606 78.7306C74.3121 78.9472 74.1681 79.0204 73.9124 79.24C70.7321 81.497 64.8125 87.5391 64.8125 91.5408C64.8125 93.7246 66.1998 94.998 67.9898 94.998C70.4029 94.998 72.4868 92.8142 73.545 90.8148C75.3379 87.9021 76.543 82.3693 77.0544 78.7657C77.1279 78.2564 77.0544 78.1832 77.4189 77.9285C78.8444 76.9449 80.3434 75.9993 81.8424 75.1621C82.2804 74.9074 84.62 73.7072 84.62 73.1598C84.62 72.87 84.4731 72.7617 84.2908 72.7617C83.7412 72.7617 82.7565 73.5257 82.5361 73.6692L77.3101 76.6902C77.3101 75.6715 77.6393 73.3062 77.6393 71.4853V68.6838C77.6393 67.9549 77.6746 65.2617 76.9075 65.2617C76.1403 65.2617 76.1403 65.5164 75.5554 66.4649C74.2768 68.6106 70.6234 75.2002 68.7599 76.1457Z" fill="#4E4848"/>
</svg>
