<svg width="48" height="48" viewBox="0 0 48 48" fill="none" xmlns="http://www.w3.org/2000/svg">
<circle cx="24" cy="24" r="23.5" stroke="white"/>
<path d="M28.9695 20.7967C30.4511 21.8596 32.2661 22.485 34.2265 22.485V18.6993C33.8555 18.6993 33.4854 18.6605 33.1225 18.5834V21.5633C31.1623 21.5633 29.3475 20.9379 27.8655 19.8751V27.6006C27.8655 31.4654 24.7436 34.5981 20.8929 34.5981C19.456 34.5981 18.1206 34.1622 17.0112 33.4146C18.2774 34.7138 20.0431 35.5198 21.9966 35.5198C25.8476 35.5198 28.9696 32.387 28.9696 28.5221V20.7967H28.9695ZM30.3314 16.9774C29.5742 16.1472 29.077 15.0744 28.9695 13.8883V13.4014H27.9233C28.1866 14.9089 29.0848 16.1968 30.3314 16.9774ZM19.4468 30.4489C19.0238 29.8922 18.7952 29.2113 18.7962 28.5111C18.7962 26.7435 20.2241 25.3103 21.9858 25.3103C22.3141 25.3102 22.6404 25.3607 22.9533 25.4603V21.59C22.5877 21.5397 22.2186 21.5183 21.8498 21.5262V24.5387C21.5366 24.439 21.2101 24.3884 20.8818 24.3887C19.1201 24.3887 17.6923 25.8218 17.6923 27.5896C17.6923 28.8395 18.406 29.9217 19.4468 30.4489Z" fill="white"/>
<path d="M27.8654 19.875C29.3474 20.9378 31.1622 21.5632 33.1224 21.5632V18.5833C32.0283 18.3494 31.0596 17.7756 30.3313 16.9774C29.0847 16.1967 28.1866 14.9088 27.9232 13.4014H25.1751V28.522C25.1689 30.2847 23.7434 31.7121 21.9856 31.7121C20.9497 31.7121 20.0294 31.2165 19.4466 30.4489C18.4058 29.9217 17.6921 28.8395 17.6921 27.5897C17.6921 25.822 19.1199 24.3888 20.8816 24.3888C21.2191 24.3888 21.5444 24.4416 21.8496 24.5387V21.5263C18.0665 21.6047 15.0239 24.7068 15.0239 28.5221C15.0239 30.4266 15.7816 32.1531 17.0113 33.4147C18.1206 34.1622 19.4561 34.5982 20.8929 34.5982C24.7437 34.5982 27.8655 31.4653 27.8655 27.6006V19.875H27.8654Z" fill="white"/>
<path d="M33.1224 18.584V17.7782C32.1357 17.7797 31.1684 17.5024 30.3313 16.978C31.0723 17.7922 32.0481 18.3536 33.1224 18.584ZM27.9232 13.4021C27.898 13.258 27.8787 13.113 27.8653 12.9674V12.4805H24.071V27.6012C24.0649 29.3638 22.6395 30.7911 20.8815 30.7911C20.3654 30.7911 19.878 30.6681 19.4465 30.4497C20.0293 31.2172 20.9496 31.7127 21.9855 31.7127C23.7432 31.7127 25.1689 30.2855 25.1751 28.5228V13.4021H27.9232ZM21.8497 21.5269V20.6692C21.5326 20.6257 21.213 20.6039 20.8929 20.604C17.0418 20.6039 13.9199 23.7368 13.9199 27.6012C13.9199 30.024 15.1469 32.1592 17.0113 33.4152C15.7816 32.1537 15.0239 30.4271 15.0239 28.5227C15.0239 24.7075 18.0664 21.6054 21.8497 21.5269Z" fill="white"/>
</svg>
